  0
SECTION
  2
HEADER
  9
$ACADVER
  1
AC1024
  9
$ACADMAINTVER
 70
     6
  9
$DWGCODEPAGE
  3
UNDEFINED
  9
$INSBASE
 10
0.0
 20
0.0
 30
0.0
  9
$EXTMIN
 10
1.000000000000000E+20
 20
1.000000000000000E+20
 30
1.000000000000000E+20
  9
$EXTMAX
 10
-1.000000000000000E+20
 20
-1.000000000000000E+20
 30
-1.000000000000000E+20
  9
$LIMMIN
 10
0.0
 20
0.0
  9
$LIMMAX
 10
12.0
 20
9.0
  9
$ORTHOMODE
 70
     0
  9
$REGENMODE
 70
     1
  9
$FILLMODE
 70
     1
  9
$QTEXTMODE
 70
     0
  9
$MIRRTEXT
 70
     1
  9
$LTSCALE
 40
1.0
  9
$ATTMODE
 70
     1
  9
$TEXTSIZE
 40
0.2
  9
$TRACEWID
 40
0.05
  9
$TEXTSTYLE
  7
Standard
  9
$CLAYER
  8
0
  9
$CELTYPE
  6
ByLayer
  9
$CECOLOR
 62
   256
  9
$CELTSCALE
 40
1.0
  9
$DISPSILH
 70
     0
  9
$DIMSCALE
 40
1.0
  9
$DIMASZ
 40
0.18
  9
$DIMEXO
 40
0.0625
  9
$DIMDLI
 40
0.38
  9
$DIMRND
 40
0.0
  9
$DIMDLE
 40
0.0
  9
$DIMEXE
 40
0.18
  9
$DIMTP
 40
0.0
  9
$DIMTM
 40
0.0
  9
$DIMTXT
 40
0.18
  9
$DIMCEN
 40
0.09
  9
$DIMTSZ
 40
0.0
  9
$DIMTOL
 70
     0
  9
$DIMLIM
 70
     0
  9
$DIMTIH
 70
     1
  9
$DIMTOH
 70
     1
  9
$DIMSE1
 70
     0
  9
$DIMSE2
 70
     0
  9
$DIMTAD
 70
     0
  9
$DIMZIN
 70
     0
  9
$DIMBLK
  1

  9
$DIMASO
 70
     1
  9
$DIMSHO
 70
     1
  9
$DIMPOST
  1

  9
$DIMAPOST
  1

  9
$DIMALT
 70
     0
  9
$DIMALTD
 70
     2
  9
$DIMALTF
 40
25.4
  9
$DIMLFAC
 40
1.0
  9
$DIMTOFL
 70
     0
  9
$DIMTVP
 40
0.0
  9
$DIMTIX
 70
     0
  9
$DIMSOXD
 70
     0
  9
$DIMSAH
 70
     0
  9
$DIMBLK1
  1

  9
$DIMBLK2
  1

  9
$DIMSTYLE
  2
Standard
  9
$DIMCLRD
 70
     0
  9
$DIMCLRE
 70
     0
  9
$DIMCLRT
 70
     0
  9
$DIMTFAC
 40
1.0
  9
$DIMGAP
 40
0.09
  9
$DIMJUST
 70
     0
  9
$DIMSD1
 70
     0
  9
$DIMSD2
 70
     0
  9
$DIMTOLJ
 70
     1
  9
$DIMTZIN
 70
     0
  9
$DIMALTZ
 70
     0
  9
$DIMALTTZ
 70
     0
  9
$DIMUPT
 70
     0
  9
$DIMDEC
 70
     4
  9
$DIMTDEC
 70
     4
  9
$DIMALTU
 70
     2
  9
$DIMALTTD
 70
     2
  9
$DIMTXSTY
  7
Standard
  9
$DIMAUNIT
 70
     0
  9
$DIMADEC
 70
     0
  9
$DIMALTRND
 40
0.0
  9
$DIMAZIN
 70
     0
  9
$DIMDSEP
 70
    46
  9
$DIMATFIT
 70
     3
  9
$DIMFRAC
 70
     0
  9
$DIMLDRBLK
  1

  9
$DIMLUNIT
 70
     2
  9
$DIMLWD
 70
    -2
  9
$DIMLWE
 70
    -2
  9
$DIMTMOVE
 70
     0
  9
$DIMFXL
 40
1.0
  9
$DIMFXLON
 70
     0
  9
$DIMJOGANG
 40
0.7853981633974483
  9
$DIMTFILL
 70
     0
  9
$DIMTFILLCLR
 70
     0
  9
$DIMARCSYM
 70
     0
  9
$DIMLTYPE
  6

  9
$DIMLTEX1
  6

  9
$DIMLTEX2
  6

  9
$DIMTXTDIRECTION
 70
     0
  9
$LUNITS
 70
     2
  9
$LUPREC
 70
     4
  9
$SKETCHINC
 40
0.1
  9
$FILLETRAD
 40
0.5
  9
$AUNITS
 70
     0
  9
$AUPREC
 70
     0
  9
$MENU
  1
.
  9
$ELEVATION
 40
0.0
  9
$PELEVATION
 40
0.0
  9
$THICKNESS
 40
0.0
  9
$LIMCHECK
 70
     0
  9
$CHAMFERA
 40
0.5
  9
$CHAMFERB
 40
0.5
  9
$CHAMFERC
 40
1.0
  9
$CHAMFERD
 40
0.0
  9
$SKPOLY
 70
     0
  9
$TDCREATE
 40
2458334.685833322
  9
$TDUCREATE
 40
2458334.644166667
  9
$TDUPDATE
 40
2458334.685833322
  9
$TDUUPDATE
 40
2458334.644166667
  9
$TDINDWG
 40
0.0000000116
  9
$TDUSRTIMER
 40
0.0000000116
  9
$USRTIMER
 70
     1
  9
$ANGBASE
 50
0.0
  9
$ANGDIR
 70
     0
  9
$PDMODE
 70
     0
  9
$PDSIZE
 40
0.0
  9
$PLINEWID
 40
0.0
  9
$SPLFRAME
 70
     0
  9
$SPLINETYPE
 70
     6
  9
$SPLINESEGS
 70
     8
  9
$HANDSEED
  5
9D
  9
$SURFTAB1
 70
     6
  9
$SURFTAB2
 70
     6
  9
$SURFTYPE
 70
     6
  9
$SURFU
 70
     6
  9
$SURFV
 70
     6
  9
$UCSBASE
  2

  9
$UCSNAME
  2

  9
$UCSORG
 10
0.0
 20
0.0
 30
0.0
  9
$UCSXDIR
 10
1.0
 20
0.0
 30
0.0
  9
$UCSYDIR
 10
0.0
 20
1.0
 30
0.0
  9
$UCSORTHOREF
  2

  9
$UCSORTHOVIEW
 70
     0
  9
$UCSORGTOP
 10
0.0
 20
0.0
 30
0.0
  9
$UCSORGBOTTOM
 10
0.0
 20
0.0
 30
0.0
  9
$UCSORGLEFT
 10
0.0
 20
0.0
 30
0.0
  9
$UCSORGRIGHT
 10
0.0
 20
0.0
 30
0.0
  9
$UCSORGFRONT
 10
0.0
 20
0.0
 30
0.0
  9
$UCSORGBACK
 10
0.0
 20
0.0
 30
0.0
  9
$PUCSBASE
  2

  9
$PUCSNAME
  2

  9
$PUCSORG
 10
0.0
 20
0.0
 30
0.0
  9
$PUCSXDIR
 10
1.0
 20
0.0
 30
0.0
  9
$PUCSYDIR
 10
0.0
 20
1.0
 30
0.0
  9
$PUCSORTHOREF
  2

  9
$PUCSORTHOVIEW
 70
     0
  9
$PUCSORGTOP
 10
0.0
 20
0.0
 30
0.0
  9
$PUCSORGBOTTOM
 10
0.0
 20
0.0
 30
0.0
  9
$PUCSORGLEFT
 10
0.0
 20
0.0
 30
0.0
  9
$PUCSORGRIGHT
 10
0.0
 20
0.0
 30
0.0
  9
$PUCSORGFRONT
 10
0.0
 20
0.0
 30
0.0
  9
$PUCSORGBACK
 10
0.0
 20
0.0
 30
0.0
  9
$USERI1
 70
     0
  9
$USERI2
 70
     0
  9
$USERI3
 70
     0
  9
$USERI4
 70
     0
  9
$USERI5
 70
     0
  9
$USERR1
 40
0.0
  9
$USERR2
 40
0.0
  9
$USERR3
 40
0.0
  9
$USERR4
 40
0.0
  9
$USERR5
 40
0.0
  9
$WORLDVIEW
 70
     1
  9
$SHADEDGE
 70
     3
  9
$SHADEDIF
 70
    70
  9
$TILEMODE
 70
     1
  9
$MAXACTVP
 70
    64
  9
$PINSBASE
 10
0.0
 20
0.0
 30
0.0
  9
$PLIMCHECK
 70
     0
  9
$PEXTMIN
 10
1.000000000000000E+20
 20
1.000000000000000E+20
 30
1.000000000000000E+20
  9
$PEXTMAX
 10
-1.000000000000000E+20
 20
-1.000000000000000E+20
 30
-1.000000000000000E+20
  9
$PLIMMIN
 10
0.0
 20
0.0
  9
$PLIMMAX
 10
12.0
 20
9.0
  9
$UNITMODE
 70
     0
  9
$VISRETAIN
 70
     1
  9
$PLINEGEN
 70
     0
  9
$PSLTSCALE
 70
     1
  9
$TREEDEPTH
 70
  3020
  9
$CMLSTYLE
  2
Standard
  9
$CMLJUST
 70
     0
  9
$CMLSCALE
 40
1.0
  9
$PROXYGRAPHICS
 70
     1
  9
$MEASUREMENT
 70
     0
  9
$CELWEIGHT
370
    -1
  9
$ENDCAPS
280
     0
  9
$JOINSTYLE
280
     0
  9
$LWDISPLAY
290
     1
  9
$INSUNITS
 70
     1
  9
$HYPERLINKBASE
  1

  9
$STYLESHEET
  1

  9
$XEDIT
290
     1
  9
$CEPSNTYPE
380
     0
  9
$PSTYLEMODE
290
     1
  9
$FINGERPRINTGUID
  2
{BB3A859B-348A-BAE4-876F-2C64F9BDF333}
  9
$VERSIONGUID
  2
{FAEB1C32-E019-11D5-929B-00C0DF256EC4}
  9
$EXTNAMES
290
     1
  9
$PSVPSCALE
 40
0.0
  9
$OLESTARTUP
290
     0
  9
$SORTENTS
280
   127
  9
$INDEXCTL
280
     0
  9
$HIDETEXT
280
     1
  9
$XCLIPFRAME
280
     2
  9
$HALOGAP
280
     0
  9
$OBSCOLOR
 70
   257
  9
$OBSLTYPE
280
     0
  9
$INTERSECTIONDISPLAY
280
     0
  9
$INTERSECTIONCOLOR
 70
   257
  9
$DIMASSOC
280
     2
  9
$PROJECTNAME
  1

  9
$CAMERADISPLAY
290
     0
  9
$LENSLENGTH
 40
50.0
  9
$CAMERAHEIGHT
 40
0.0
  9
$STEPSPERSEC
 40
2.0
  9
$STEPSIZE
 40
6.0
  9
$3DDWFPREC
 40
2.0
  9
$PSOLWIDTH
 40
0.25
  9
$PSOLHEIGHT
 40
4.0
  9
$LOFTANG1
 40
1.570796326794897
  9
$LOFTANG2
 40
1.570796326794897
  9
$LOFTMAG1
 40
0.0
  9
$LOFTMAG2
 40
0.0
  9
$LOFTPARAM
 70
     7
  9
$LOFTNORMALS
280
     1
  9
$LATITUDE
 40
37.795
  9
$LONGITUDE
 40
-122.394
  9
$NORTHDIRECTION
 40
0.0
  9
$TIMEZONE
 70
 -8000
  9
$LIGHTGLYPHDISPLAY
280
     1
  9
$TILEMODELIGHTSYNCH
280
     1
  9
$CMATERIAL
347
3C
  9
$SOLIDHIST
280
     1
  9
$SHOWHIST
280
     1
  9
$DWFFRAME
280
     2
  9
$DGNFRAME
280
     2
  9
$REALWORLDSCALE
290
     1
  9
$INTERFERECOLOR
 62
   256
  9
$CSHADOW
280
     0
  9
$SHADOWPLANELOCATION
 40
0.0
  0
ENDSEC
  0
SECTION
  2
CLASSES
  0
CLASS
  1
ACDBDICTIONARYWDFLT
  2
AcDbDictionaryWithDefault
  3
ObjectDBX Classes
 90
        0
 91
        4
280
     0
281
     0
  0
CLASS
  1
VISUALSTYLE
  2
AcDbVisualStyle
  3
ObjectDBX Classes
 90
     4095
 91
        4
280
     0
281
     0
  0
CLASS
  1
MATERIAL
  2
AcDbMaterial
  3
ObjectDBX Classes
 90
     1153
 91
        4
280
     0
281
     0
  0
CLASS
  1
SUN
  2
AcDbSun
  3
SCENEOE
 90
     1024
 91
        4
280
     0
281
     0
  0
ENDSEC
  0
SECTION
  2
TABLES
  0
TABLE
  2
VPORT
  5
8
330
0
100
AcDbSymbolTable
 70
     1
  0
VPORT
  5
29
330
8
100
AcDbSymbolTableRecord
100
AcDbViewportTableRecord
  2
*Active
 70
     0
 10
0.0
 20
0.0
 11
1.0
 21
1.0
 12
0.0
 22
0.0
 13
0.0
 23
0.0
 14
0.5
 24
0.5
 15
0.5
 25
0.5
 16
0.0
 26
0.0
 36
1.0
 17
240.9469999397667
 27
-135.4664999661316
 37
0.0
 40
270.9329999322631
 41
1.778646381208688
 42
50.0
 43
0.0
 44
0.0
 50
0.0
 51
0.0
 71
     0
 72
   100
 73
     1
 74
     3
 75
     0
 76
     0
 77
     0
 78
     0
281
     0
 65
     1
110
0.0
120
0.0
130
0.0
111
1.0
121
0.0
131
0.0
112
0.0
122
1.0
132
0.0
 79
     0
146
0.0
 60
     3
 61
     5
292
     1
282
     1
141
0.0
142
0.0
 63
   250
361
3F
  0
ENDTAB
  0
TABLE
  2
LTYPE
  5
5
330
0
100
AcDbSymbolTable
 70
     1
  0
LTYPE
  5
14
330
5
100
AcDbSymbolTableRecord
100
AcDbLinetypeTableRecord
  2
ByBlock
 70
     0
  3

 72
    65
 73
     0
 40
0.0
  0
LTYPE
  5
15
330
5
100
AcDbSymbolTableRecord
100
AcDbLinetypeTableRecord
  2
ByLayer
 70
     0
  3

 72
    65
 73
     0
 40
0.0
  0
LTYPE
  5
16
330
5
100
AcDbSymbolTableRecord
100
AcDbLinetypeTableRecord
  2
Continuous
 70
     0
  3
Solid line
 72
    65
 73
     0
 40
0.0
  0
ENDTAB
  0
TABLE
  2
LAYER
  5
2
330
0
100
AcDbSymbolTable
 70
     2
  0
LAYER
  5
10
330
2
100
AcDbSymbolTableRecord
100
AcDbLayerTableRecord
  2
0
 70
     0
 62
     7
  6
Continuous
370
    -3
390
F
347
3E
  0
LAYER
  5
40
330
2
100
AcDbSymbolTableRecord
100
AcDbLayerTableRecord
  2
Layer 1
 70
     0
 62
     7
  6
Continuous
370
    -3
390
F
347
3E
  0
ENDTAB
  0
TABLE
  2
STYLE
  5
3
330
0
100
AcDbSymbolTable
 70
     1
  0
STYLE
  5
11
330
3
100
AcDbSymbolTableRecord
100
AcDbTextStyleTableRecord
  2
Standard
 70
     0
 40
0.0
 41
1.0
 50
0.0
 71
     0
 42
0.2
  3
txt
  4

  0
ENDTAB
  0
TABLE
  2
VIEW
  5
6
330
0
100
AcDbSymbolTable
 70
     0
  0
ENDTAB
  0
TABLE
  2
UCS
  5
7
330
0
100
AcDbSymbolTable
 70
     0
  0
ENDTAB
  0
TABLE
  2
APPID
  5
9
330
0
100
AcDbSymbolTable
 70
     1
  0
APPID
  5
12
330
9
100
AcDbSymbolTableRecord
100
AcDbRegAppTableRecord
  2
ACAD
 70
     0
  0
ENDTAB
  0
TABLE
  2
DIMSTYLE
  5
A
330
0
100
AcDbSymbolTable
 70
     1
100
AcDbDimStyleTable
  0
DIMSTYLE
105
27
330
A
100
AcDbSymbolTableRecord
100
AcDbDimStyleTableRecord
  2
Standard
 70
     0
178
     0
340
11
  0
ENDTAB
  0
TABLE
  2
BLOCK_RECORD
  5
1
330
0
100
AcDbSymbolTable
 70
     1
  0
BLOCK_RECORD
  5
1F
330
1
100
AcDbSymbolTableRecord
100
AcDbBlockTableRecord
  2
*Model_Space
340
22
 70
     0
280
     1
281
     0
  0
BLOCK_RECORD
  5
1B
330
1
100
AcDbSymbolTableRecord
100
AcDbBlockTableRecord
  2
*Paper_Space
340
1E
 70
     0
280
     1
281
     0
  0
BLOCK_RECORD
  5
23
330
1
100
AcDbSymbolTableRecord
100
AcDbBlockTableRecord
  2
*Paper_Space0
340
26
 70
     0
280
     1
281
     0
  0
ENDTAB
  0
ENDSEC
  0
SECTION
  2
BLOCKS
  0
BLOCK
  5
20
330
1F
100
AcDbEntity
  8
0
100
AcDbBlockBegin
  2
*Model_Space
 70
     0
 10
0.0
 20
0.0
 30
0.0
  3
*Model_Space
  1

  0
ENDBLK
  5
21
330
1F
100
AcDbEntity
  8
0
100
AcDbBlockEnd
  0
BLOCK
  5
1C
330
1B
100
AcDbEntity
 67
     1
  8
0
100
AcDbBlockBegin
  2
*Paper_Space
 70
     0
 10
0.0
 20
0.0
 30
0.0
  3
*Paper_Space
  1

  0
ENDBLK
  5
1D
330
1B
100
AcDbEntity
 67
     1
  8
0
100
AcDbBlockEnd
  0
BLOCK
  5
24
330
23
100
AcDbEntity
  8
0
100
AcDbBlockBegin
  2
*Paper_Space0
 70
     0
 10
0.0
 20
0.0
 30
0.0
  3
*Paper_Space0
  1

  0
ENDBLK
  5
25
330
23
100
AcDbEntity
  8
0
100
AcDbBlockEnd
  0
ENDSEC
  0
SECTION
  2
ENTITIES
  0
SPLINE
  5
41
330
1F
100
AcDbEntity
  8
Layer 1
 62
     7
420
 16777215
370
    13
100
AcDbSpline
210
0.0
220
0.0
230
1.0
 70
    11
 71
     3
 72
    17
 73
    13
 74
     0
 42
0.0000000001
 43
0.0000000001
 12
1.0
 22
0.0
 32
0.0
 13
1.0
 23
0.0
 33
0.0
 40
0.0
 40
0.0
 40
0.0
 40
0.0
 40
1.0
 40
1.0
 40
1.0
 40
2.0
 40
2.0
 40
2.0
 40
3.0
 40
3.0
 40
3.0
 40
4.0
 40
4.0
 40
4.0
 40
4.0
 10
126.8083333016314
 20
-146.802777741077
 30
0.0
 10
126.8083333016314
 20
-147.9625757153675
 30
0.0
 10
125.8681312764464
 20
-148.9027777405518
 30
0.0
 10
124.7083333021562
 20
-148.9027777405518
 30
0.0
 10
123.5485353278664
 20
-148.9027777405518
 30
0.0
 10
122.6083333026814
 20
-147.9625757153675
 30
0.0
 10
122.6083333026814
 20
-146.802777741077
 30
0.0
 10
122.6083333026814
 20
-145.6429797667872
 30
0.0
 10
123.5485353278664
 20
-144.7027777416021
 30
0.0
 10
124.7083333021562
 20
-144.7027777416021
 30
0.0
 10
125.8681312764464
 20
-144.7027777416021
 30
0.0
 10
126.8083333016314
 20
-145.6429797667872
 30
0.0
 10
126.8083333016314
 20
-146.802777741077
 30
0.0
  0
SPLINE
  5
42
330
1F
100
AcDbEntity
  8
Layer 1
 62
     7
420
 16777215
370
    13
100
AcDbSpline
210
0.0
220
0.0
230
1.0
 70
    11
 71
     3
 72
    17
 73
    13
 74
     0
 42
0.0000000001
 43
0.0000000001
 12
1.0
 22
0.0
 32
0.0
 13
1.0
 23
0.0
 33
0.0
 40
0.0
 40
0.0
 40
0.0
 40
0.0
 40
1.0
 40
1.0
 40
1.0
 40
2.0
 40
2.0
 40
2.0
 40
3.0
 40
3.0
 40
3.0
 40
4.0
 40
4.0
 40
4.0
 40
4.0
 10
225.8083332768813
 20
-47.80277776582705
 30
0.0
 10
225.8083332768813
 20
-48.96257574011752
 30
0.0
 10
224.8681312516963
 20
-49.90277776530189
 30
0.0
 10
223.7083332774062
 20
-49.90277776530189
 30
0.0
 10
222.5485353031164
 20
-49.90277776530189
 30
0.0
 10
221.6083332779313
 20
-48.96257574011752
 30
0.0
 10
221.6083332779313
 20
-47.80277776582705
 30
0.0
 10
221.6083332779313
 20
-46.64297979153722
 30
0.0
 10
222.5485353031164
 20
-45.7027777663522
 30
0.0
 10
223.7083332774062
 20
-45.7027777663522
 30
0.0
 10
224.8681312516963
 20
-45.7027777663522
 30
0.0
 10
225.8083332768813
 20
-46.64297979153722
 30
0.0
 10
225.8083332768813
 20
-47.80277776582705
 30
0.0
  0
SPLINE
  5
43
330
1F
100
AcDbEntity
  8
Layer 1
 62
     7
420
 16777215
370
    13
100
AcDbSpline
210
0.0
220
0.0
230
1.0
 70
    11
 71
     3
 72
    17
 73
    13
 74
     0
 42
0.0000000001
 43
0.0000000001
 12
1.0
 22
0.0
 32
0.0
 13
1.0
 23
0.0
 33
0.0
 40
0.0
 40
0.0
 40
0.0
 40
0.0
 40
1.0
 40
1.0
 40
1.0
 40
2.0
 40
2.0
 40
2.0
 40
3.0
 40
3.0
 40
3.0
 40
4.0
 40
4.0
 40
4.0
 40
4.0
 10
324.8083332521316
 20
-146.802777741077
 30
0.0
 10
324.8083332521316
 20
-147.9625757153675
 30
0.0
 10
323.8681312269466
 20
-148.9027777405518
 30
0.0
 10
322.7083332526561
 20
-148.9027777405518
 30
0.0
 10
321.5485352783663
 20
-148.9027777405518
 30
0.0
 10
320.6083332531813
 20
-147.9625757153675
 30
0.0
 10
320.6083332531813
 20
-146.802777741077
 30
0.0
 10
320.6083332531813
 20
-145.6429797667872
 30
0.0
 10
321.5485352783663
 20
-144.7027777416021
 30
0.0
 10
322.7083332526561
 20
-144.7027777416021
 30
0.0
 10
323.8681312269466
 20
-144.7027777416021
 30
0.0
 10
324.8083332521316
 20
-145.6429797667872
 30
0.0
 10
324.8083332521316
 20
-146.802777741077
 30
0.0
  0
SPLINE
  5
44
330
1F
100
AcDbEntity
  8
Layer 1
 62
     7
420
 16777215
370
    18
100
AcDbSpline
210
0.0
220
0.0
230
1.0
 70
    11
 71
     3
 72
    20
 73
    16
 74
     0
 42
0.0000000001
 43
0.0000000001
 12
1.0
 22
0.0
 32
0.0
 13
1.0
 23
0.0
 33
0.0
 40
0.0
 40
0.0
 40
0.0
 40
0.0
 40
1.0
 40
1.0
 40
1.0
 40
2.0
 40
2.0
 40
2.0
 40
3.0
 40
3.0
 40
3.0
 40
4.0
 40
4.0
 40
4.0
 40
5.0
 40
5.0
 40
5.0
 40
5.0
 10
170.373224593118
 20
-233.7643165074022
 30
0.0
 10
170.373224593118
 20
-233.7643165074022
 30
0.0
 10
277.0434379639755
 20
-233.7643189645109
 30
0.0
 10
277.0434379639755
 20
-233.7643189645109
 30
0.0
 10
306.2389504611373
 20
-215.8199586125988
 30
0.0
 10
325.7083332519061
 20
-183.5850271766621
 30
0.0
 10
325.7083332519061
 20
-146.802777741077
 30
0.0
 10
325.7083332519061
 20
-90.46973327556007
 30
0.0
 10
280.0413777429231
 20
-44.80277776657677
 30
0.0
 10
223.7083332774062
 20
-44.80277776657677
 30
0.0
 10
167.3752888118896
 20
-44.80277776657677
 30
0.0
 10
121.7083333029063
 20
-90.46973327556007
 30
0.0
 10
121.7083333029063
 20
-146.802777741077
 30
0.0
 10
121.7083333029063
 20
-183.5850254978068
 30
0.0
 10
141.1777143163901
 20
-215.8199556699949
 30
0.0
 10
170.373224593118
 20
-233.7643165074022
 30
0.0
  0
SPLINE
  5
45
330
1F
100
AcDbEntity
  8
Layer 1
370
     0
100
AcDbSpline
210
0.0
220
0.0
230
1.0
 70
    11
 71
     3
 72
    17
 73
    13
 74
     0
 42
0.0000000001
 43
0.0000000001
 12
1.0
 22
0.0
 32
0.0
 13
1.0
 23
0.0
 33
0.0
 40
0.0
 40
0.0
 40
0.0
 40
0.0
 40
1.0
 40
1.0
 40
1.0
 40
2.0
 40
2.0
 40
2.0
 40
3.0
 40
3.0
 40
3.0
 40
4.0
 40
4.0
 40
4.0
 40
4.0
 10
251.0127788115252
 20
-203.1627577136326
 30
0.0
 10
251.0127788115252
 20
-202.2850617229711
 30
0.0
 10
251.7257318776506
 20
-201.5726560422304
 30
0.0
 10
252.6028563468086
 20
-201.5726560422304
 30
0.0
 10
253.4810603146993
 20
-201.5726560422304
 30
0.0
 10
254.1927674782667
 20
-202.2850617229711
 30
0.0
 10
254.1927674782667
 20
-203.1627577136326
 30
0.0
 10
254.1927674782667
 20
-204.0406653707153
 30
0.0
 10
253.4810603146993
 20
-204.7526477186116
 30
0.0
 10
252.6028563468086
 20
-204.7526477186116
 30
0.0
 10
251.7257318776506
 20
-204.7526477186116
 30
0.0
 10
251.0127788115252
 20
-204.0406653707153
 30
0.0
 10
251.0127788115252
 20
-203.1627577136326
 30
0.0
  0
HATCH
  5
46
330
1F
100
AcDbEntity
  8
Layer 1
 62
    72
420
  7781409
100
AcDbHatch
 10
0.0
 20
0.0
 30
0.0
210
0.0
220
0.0
230
1.0
  2
SOLID
 70
     1
 71
     0
 91
        1
 92
        1
 93
        2
 72
     4
 94
        3
 73
     0
 74
     0
 95
       17
 96
       13
 40
0.0
 40
0.0
 40
0.0
 40
0.0
 40
0.3527777776895833
 40
0.3527777776895833
 40
0.3527777776895833
 40
0.7055555553791667
 40
0.7055555553791667
 40
0.7055555553791667
 40
1.05833333306875
 40
1.05833333306875
 40
1.05833333306875
 40
1.411111110758333
 40
1.411111110758333
 40
1.411111110758333
 40
1.411111110758333
 10
251.0127788115252
 20
-203.1627577136326
 10
251.0127788115252
 20
-202.2850617229711
 10
251.7257318776506
 20
-201.5726560422304
 10
252.6028563468086
 20
-201.5726560422304
 10
253.4810603146993
 20
-201.5726560422304
 10
254.1927674782667
 20
-202.2850617229711
 10
254.1927674782667
 20
-203.1627577136326
 10
254.1927674782667
 20
-204.0406653707153
 10
253.4810603146993
 20
-204.7526477186116
 10
252.6028563468086
 20
-204.7526477186116
 10
251.7257318776506
 20
-204.7526477186116
 10
251.0127788115252
 20
-204.0406653707153
 10
251.0127788115252
 20
-203.1627577136326
 97
        0
 72
     1
 10
251.0127788115252
 20
-203.1627577136326
 11
251.0127788115252
 21
-203.1627577136326
 97
        0
 75
     2
 76
     1
 98
        0
  0
SPLINE
  5
47
330
1F
100
AcDbEntity
  8
Layer 1
370
     0
100
AcDbSpline
210
0.0
220
0.0
230
1.0
 70
    11
 71
     3
 72
    26
 73
    22
 74
     0
 42
0.0000000001
 43
0.0000000001
 12
1.0
 22
0.0
 32
0.0
 13
1.0
 23
0.0
 33
0.0
 40
0.0
 40
0.0
 40
0.0
 40
0.0
 40
1.0
 40
1.0
 40
1.0
 40
2.0
 40
2.0
 40
2.0
 40
3.0
 40
3.0
 40
3.0
 40
4.0
 40
4.0
 40
4.0
 40
5.0
 40
5.0
 40
5.0
 40
6.0
 40
6.0
 40
6.0
 40
7.0
 40
7.0
 40
7.0
 40
7.0
 10
203.307652614333
 20
-198.8464560106607
 30
0.0
 10
203.307652614333
 20
-200.6811805674155
 30
0.0
 10
202.8139406945666
 20
-202.0954509410232
 30
0.0
 10
201.827448187276
 20
-203.0878489664443
 30
0.0
 10
200.8409345133452
 20
-204.081072490915
 30
0.0
 10
199.4540538099409
 20
-204.5773667535165
 30
0.0
 10
197.6666790772204
 20
-204.5773667535165
 30
0.0
 10
197.6666790772204
 20
-204.5773667535165
 30
0.0
 10
194.1927674932669
 20
-204.5773667535165
 30
0.0
 10
194.1927674932669
 20
-204.5773667535165
 30
0.0
 10
194.1927674932669
 20
-204.5773667535165
 30
0.0
 10
194.1927674932669
 20
-193.581253732246
 30
0.0
 10
194.1927674932669
 20
-193.581253732246
 30
0.0
 10
194.1927674932669
 20
-193.581253732246
 30
0.0
 10
197.909142958933
 20
-193.581253732246
 30
0.0
 10
197.909142958933
 20
-193.581253732246
 30
0.0
 10
199.6327425999419
 20
-193.581253732246
 30
0.0
 10
200.9635105359538
 20
-194.0329075461852
 30
0.0
 10
201.9013409337658
 20
-194.9351780085831
 30
0.0
 10
202.838642165539
 20
-195.8378506371875
 30
0.0
 10
203.307652614333
 20
-197.1411443050824
 30
0.0
 10
203.307652614333
 20
-198.8464560106607
 30
0.0
  0
HATCH
  5
48
330
1F
100
AcDbEntity
  8
Layer 1
 62
   179
420
  1710616
100
AcDbHatch
 10
0.0
 20
0.0
 30
0.0
210
0.0
220
0.0
230
1.0
  2
SOLID
 70
     1
 71
     0
 91
        1
 92
        1
 93
        2
 72
     4
 94
        3
 73
     0
 74
     0
 95
       26
 96
       22
 40
0.0
 40
0.0
 40
0.0
 40
0.0
 40
0.3527777776895833
 40
0.3527777776895833
 40
0.3527777776895833
 40
0.7055555553791667
 40
0.7055555553791667
 40
0.7055555553791667
 40
1.05833333306875
 40
1.05833333306875
 40
1.05833333306875
 40
1.411111110758333
 40
1.411111110758333
 40
1.411111110758333
 40
1.763888888447917
 40
1.763888888447917
 40
1.763888888447917
 40
2.1166666661375
 40
2.1166666661375
 40
2.1166666661375
 40
2.469444443827083
 40
2.469444443827083
 40
2.469444443827083
 40
2.469444443827083
 10
203.307652614333
 20
-198.8464560106607
 10
203.307652614333
 20
-200.6811805674155
 10
202.8139406945666
 20
-202.0954509410232
 10
201.827448187276
 20
-203.0878489664443
 10
200.8409345133452
 20
-204.081072490915
 10
199.4540538099409
 20
-204.5773667535165
 10
197.6666790772204
 20
-204.5773667535165
 10
197.6666790772204
 20
-204.5773667535165
 10
194.1927674932669
 20
-204.5773667535165
 10
194.1927674932669
 20
-204.5773667535165
 10
194.1927674932669
 20
-204.5773667535165
 10
194.1927674932669
 20
-193.581253732246
 10
194.1927674932669
 20
-193.581253732246
 10
194.1927674932669
 20
-193.581253732246
 10
197.909142958933
 20
-193.581253732246
 10
197.909142958933
 20
-193.581253732246
 10
199.6327425999419
 20
-193.581253732246
 10
200.9635105359538
 20
-194.0329075461852
 10
201.9013409337658
 20
-194.9351780085831
 10
202.838642165539
 20
-195.8378506371875
 10
203.307652614333
 20
-197.1411443050824
 10
203.307652614333
 20
-198.8464560106607
 97
        0
 72
     1
 10
203.307652614333
 20
-198.8464560106607
 11
203.307652614333
 21
-198.8464560106607
 97
        0
 75
     2
 76
     1
 98
        0
  0
POLYLINE
  5
49
330
1F
100
AcDbEntity
  8
Layer 1
370
     0
100
AcDb2dPolyline
 66
     1
 10
0.0
 20
0.0
 30
0.0
  0
VERTEX
  5
4A
330
49
100
AcDbEntity
  8
Layer 1
370
     0
100
AcDbVertex
100
AcDb2dVertex
 10
212.9296904726992
 20
-204.5773667535165
 30
0.0
  0
VERTEX
  5
4B
330
49
100
AcDbEntity
  8
Layer 1
370
     0
100
AcDbVertex
100
AcDb2dVertex
 10
215.6938633907727
 20
-204.5773667535165
 30
0.0
  0
VERTEX
  5
4C
330
49
100
AcDbEntity
  8
Layer 1
370
     0
100
AcDbVertex
100
AcDb2dVertex
 10
215.6938633907727
 20
-193.5351527852611
 30
0.0
  0
VERTEX
  5
4D
330
49
100
AcDbEntity
  8
Layer 1
370
     0
100
AcDbVertex
100
AcDb2dVertex
 10
212.9296904726992
 20
-193.5351527852611
 30
0.0
  0
VERTEX
  5
4E
330
49
100
AcDbEntity
  8
Layer 1
370
     0
100
AcDbVertex
100
AcDb2dVertex
 10
212.9296904726992
 20
-204.5773667535165
 30
0.0
  0
SEQEND
  5
50
330
49
100
AcDbEntity
  8
Layer 1
370
     0
  0
HATCH
  5
4F
330
1F
100
AcDbEntity
  8
Layer 1
 62
   179
420
  1710616
100
AcDbHatch
 10
0.0
 20
0.0
 30
0.0
210
0.0
220
0.0
230
1.0
  2
SOLID
 70
     1
 71
     0
 91
        1
 92
        1
 93
        4
 72
     1
 10
212.9296904726992
 20
-204.5773667535165
 11
215.6938633907727
 21
-204.5773667535165
 72
     1
 10
215.6938633907727
 20
-204.5773667535165
 11
215.6938633907727
 21
-193.5351527852611
 72
     1
 10
215.6938633907727
 20
-193.5351527852611
 11
212.9296904726992
 21
-193.5351527852611
 72
     1
 10
212.9296904726992
 20
-193.5351527852611
 11
212.9296904726992
 21
-204.5773667535165
 97
        0
 75
     2
 76
     1
 98
        0
  0
SPLINE
  5
51
330
1F
100
AcDbEntity
  8
Layer 1
370
     0
100
AcDbSpline
210
0.0
220
0.0
230
1.0
 70
    11
 71
     3
 72
    32
 73
    28
 74
     0
 42
0.0000000001
 43
0.0000000001
 12
1.0
 22
0.0
 32
0.0
 13
1.0
 23
0.0
 33
0.0
 40
0.0
 40
0.0
 40
0.0
 40
0.0
 40
1.0
 40
1.0
 40
1.0
 40
2.0
 40
2.0
 40
2.0
 40
3.0
 40
3.0
 40
3.0
 40
4.0
 40
4.0
 40
4.0
 40
5.0
 40
5.0
 40
5.0
 40
6.0
 40
6.0
 40
6.0
 40
7.0
 40
7.0
 40
7.0
 40
8.0
 40
8.0
 40
8.0
 40
9.0
 40
9.0
 40
9.0
 40
9.0
 10
224.764933563329
 20
-200.4585498234381
 30
0.0
 10
224.764933563329
 20
-201.7996682811683
 30
0.0
 10
224.4133344765457
 20
-202.8462105776582
 30
0.0
 10
223.7082524718573
 20
-203.5963352150236
 30
0.0
 10
223.0040193545983
 20
-204.3468831852372
 30
0.0
 10
222.0176092921201
 20
-204.7220619204511
 30
0.0
 10
220.750087281777
 20
-204.7220619204511
 30
0.0
 10
219.5340425442649
 20
-204.7220619204511
 30
0.0
 10
218.5668751809288
 20
-204.3384165283068
 30
0.0
 10
217.8483523587072
 20
-203.5709140775899
 30
0.0
 10
217.1292368705153
 20
-202.8036232932994
 30
0.0
 10
216.7698696261947
 20
-201.7663731527898
 30
0.0
 10
216.7698696261947
 20
-200.4585498234381
 30
0.0
 10
216.7698696261947
 20
-199.1213683611817
 30
0.0
 10
217.1219978790241
 20
-198.0822767227911
 30
0.0
 10
217.8268703082537
 20
-197.3414442414059
 30
0.0
 10
218.5315268891418
 20
-196.6008022598008
 30
0.0
 10
219.5202016942768
 20
-196.2303860191092
 30
0.0
 10
220.792674565058
 20
-196.2303860191092
 30
0.0
 10
221.579184640714
 20
-196.2303860191092
 30
0.0
 10
222.2747416565947
 20
-196.4017511553742
 30
0.0
 10
222.8777157812815
 20
-196.7446719276869
 30
0.0
 10
223.4810920721655
 20
-197.0874022002189
 30
0.0
 10
223.9463771920004
 20
-197.5783201356684
 30
0.0
 10
224.2740178941137
 20
-198.2180818999507
 30
0.0
 10
224.6014212554981
 20
-198.8567853321152
 30
0.0
 10
224.764933563329
 20
-199.604031306124
 30
0.0
 10
224.764933563329
 20
-200.4585498234381
 30
0.0
  0
HATCH
  5
52
330
1F
100
AcDbEntity
  8
Layer 1
 62
   179
420
  1710616
100
AcDbHatch
 10
0.0
 20
0.0
 30
0.0
210
0.0
220
0.0
230
1.0
  2
SOLID
 70
     1
 71
     0
 91
        1
 92
        1
 93
        2
 72
     4
 94
        3
 73
     0
 74
     0
 95
       32
 96
       28
 40
0.0
 40
0.0
 40
0.0
 40
0.0
 40
0.3527777776895833
 40
0.3527777776895833
 40
0.3527777776895833
 40
0.7055555553791667
 40
0.7055555553791667
 40
0.7055555553791667
 40
1.05833333306875
 40
1.05833333306875
 40
1.05833333306875
 40
1.411111110758333
 40
1.411111110758333
 40
1.411111110758333
 40
1.763888888447917
 40
1.763888888447917
 40
1.763888888447917
 40
2.1166666661375
 40
2.1166666661375
 40
2.1166666661375
 40
2.469444443827083
 40
2.469444443827083
 40
2.469444443827083
 40
2.822222221516667
 40
2.822222221516667
 40
2.822222221516667
 40
3.17499999920625
 40
3.17499999920625
 40
3.17499999920625
 40
3.17499999920625
 10
224.764933563329
 20
-200.4585498234381
 10
224.764933563329
 20
-201.7996682811683
 10
224.4133344765457
 20
-202.8462105776582
 10
223.7082524718573
 20
-203.5963352150236
 10
223.0040193545983
 20
-204.3468831852372
 10
222.0176092921201
 20
-204.7220619204511
 10
220.750087281777
 20
-204.7220619204511
 10
219.5340425442649
 20
-204.7220619204511
 10
218.5668751809288
 20
-204.3384165283068
 10
217.8483523587072
 20
-203.5709140775899
 10
217.1292368705153
 20
-202.8036232932994
 10
216.7698696261947
 20
-201.7663731527898
 10
216.7698696261947
 20
-200.4585498234381
 10
216.7698696261947
 20
-199.1213683611817
 10
217.1219978790241
 20
-198.0822767227911
 10
217.8268703082537
 20
-197.3414442414059
 10
218.5315268891418
 20
-196.6008022598008
 10
219.5202016942768
 20
-196.2303860191092
 10
220.792674565058
 20
-196.2303860191092
 10
221.579184640714
 20
-196.2303860191092
 10
222.2747416565947
 20
-196.4017511553742
 10
222.8777157812815
 20
-196.7446719276869
 10
223.4810920721655
 20
-197.0874022002189
 10
223.9463771920004
 20
-197.5783201356684
 10
224.2740178941137
 20
-198.2180818999507
 10
224.6014212554981
 20
-198.8567853321152
 10
224.764933563329
 20
-199.604031306124
 10
224.764933563329
 20
-200.4585498234381
 97
        0
 72
     1
 10
224.764933563329
 20
-200.4585498234381
 11
224.764933563329
 21
-200.4585498234381
 97
        0
 75
     2
 76
     1
 98
        0
  0
POLYLINE
  5
53
330
1F
100
AcDbEntity
  8
Layer 1
370
     0
100
AcDb2dPolyline
 66
     1
 10
0.0
 20
0.0
 30
0.0
  0
VERTEX
  5
54
330
53
100
AcDbEntity
  8
Layer 1
370
     0
100
AcDbVertex
100
AcDb2dVertex
 10
225.8625297733792
 20
-204.5773667535165
 30
0.0
  0
VERTEX
  5
55
330
53
100
AcDbEntity
  8
Layer 1
370
     0
100
AcDbVertex
100
AcDb2dVertex
 10
228.6268085246608
 20
-204.5773667535165
 30
0.0
  0
VERTEX
  5
56
330
53
100
AcDbEntity
  8
Layer 1
370
     0
100
AcDbVertex
100
AcDb2dVertex
 10
228.6268085246608
 20
-196.3752928524696
 30
0.0
  0
VERTEX
  5
57
330
53
100
AcDbEntity
  8
Layer 1
370
     0
100
AcDbVertex
100
AcDb2dVertex
 10
225.8625297733792
 20
-196.3752928524696
 30
0.0
  0
VERTEX
  5
58
330
53
100
AcDbEntity
  8
Layer 1
370
     0
100
AcDbVertex
100
AcDb2dVertex
 10
225.8625297733792
 20
-204.5773667535165
 30
0.0
  0
SEQEND
  5
5A
330
53
100
AcDbEntity
  8
Layer 1
370
     0
  0
HATCH
  5
59
330
1F
100
AcDbEntity
  8
Layer 1
 62
   179
420
  1710616
100
AcDbHatch
 10
0.0
 20
0.0
 30
0.0
210
0.0
220
0.0
230
1.0
  2
SOLID
 70
     1
 71
     0
 91
        1
 92
        1
 93
        4
 72
     1
 10
225.8625297733792
 20
-204.5773667535165
 11
228.6268085246608
 21
-204.5773667535165
 72
     1
 10
228.6268085246608
 20
-204.5773667535165
 11
228.6268085246608
 21
-196.3752928524696
 72
     1
 10
228.6268085246608
 20
-196.3752928524696
 11
225.8625297733792
 21
-196.3752928524696
 72
     1
 10
225.8625297733792
 20
-196.3752928524696
 11
225.8625297733792
 21
-204.5773667535165
 97
        0
 75
     2
 76
     1
 98
        0
  0
POLYLINE
  5
5B
330
1F
100
AcDbEntity
  8
Layer 1
370
     0
100
AcDb2dPolyline
 66
     1
 10
0.0
 20
0.0
 30
0.0
  0
VERTEX
  5
5C
330
5B
100
AcDbEntity
  8
Layer 1
370
     0
100
AcDbVertex
100
AcDb2dVertex
 10
225.8625297733792
 20
-195.383318159893
 30
0.0
  0
VERTEX
  5
5D
330
5B
100
AcDbEntity
  8
Layer 1
370
     0
100
AcDbVertex
100
AcDb2dVertex
 10
228.6268085246608
 20
-195.383318159893
 30
0.0
  0
VERTEX
  5
5E
330
5B
100
AcDbEntity
  8
Layer 1
370
     0
100
AcDbVertex
100
AcDb2dVertex
 10
228.6268085246608
 20
-193.5351527852611
 30
0.0
  0
VERTEX
  5
5F
330
5B
100
AcDbEntity
  8
Layer 1
370
     0
100
AcDbVertex
100
AcDb2dVertex
 10
225.8625297733792
 20
-193.5351527852611
 30
0.0
  0
VERTEX
  5
60
330
5B
100
AcDbEntity
  8
Layer 1
370
     0
100
AcDbVertex
100
AcDb2dVertex
 10
225.8625297733792
 20
-195.383318159893
 30
0.0
  0
SEQEND
  5
62
330
5B
100
AcDbEntity
  8
Layer 1
370
     0
  0
HATCH
  5
61
330
1F
100
AcDbEntity
  8
Layer 1
 62
   179
420
  1710616
100
AcDbHatch
 10
0.0
 20
0.0
 30
0.0
210
0.0
220
0.0
230
1.0
  2
SOLID
 70
     1
 71
     0
 91
        1
 92
        1
 93
        4
 72
     1
 10
225.8625297733792
 20
-195.383318159893
 11
228.6268085246608
 21
-195.383318159893
 72
     1
 10
228.6268085246608
 20
-195.383318159893
 11
228.6268085246608
 21
-193.5351527852611
 72
     1
 10
228.6268085246608
 20
-193.5351527852611
 11
225.8625297733792
 21
-193.5351527852611
 72
     1
 10
225.8625297733792
 20
-193.5351527852611
 11
225.8625297733792
 21
-195.383318159893
 97
        0
 75
     2
 76
     1
 98
        0
  0
SPLINE
  5
63
330
1F
100
AcDbEntity
  8
Layer 1
370
     0
100
AcDbSpline
210
0.0
220
0.0
230
1.0
 70
    11
 71
     3
 72
    59
 73
    55
 74
     0
 42
0.0000000001
 43
0.0000000001
 12
1.0
 22
0.0
 32
0.0
 13
1.0
 23
0.0
 33
0.0
 40
0.0
 40
0.0
 40
0.0
 40
0.0
 40
1.0
 40
1.0
 40
1.0
 40
2.0
 40
2.0
 40
2.0
 40
3.0
 40
3.0
 40
3.0
 40
4.0
 40
4.0
 40
4.0
 40
5.0
 40
5.0
 40
5.0
 40
6.0
 40
6.0
 40
6.0
 40
7.0
 40
7.0
 40
7.0
 40
8.0
 40
8.0
 40
8.0
 40
9.0
 40
9.0
 40
9.0
 40
10.0
 40
10.0
 40
10.0
 40
11.0
 40
11.0
 40
11.0
 40
12.0
 40
12.0
 40
12.0
 40
13.0
 40
13.0
 40
13.0
 40
14.0
 40
14.0
 40
14.0
 40
15.0
 40
15.0
 40
15.0
 40
16.0
 40
16.0
 40
16.0
 40
17.0
 40
17.0
 40
17.0
 40
18.0
 40
18.0
 40
18.0
 40
18.0
 10
234.2279041086402
 20
-202.4852981593687
 30
0.0
 10
234.6007993517698
 20
-202.4852981593687
 30
0.0
 10
235.0456349809312
 20
-202.3906197682484
 30
0.0
 10
235.564260038087
 20
-202.2025329845451
 30
0.0
 10
235.564260038087
 20
-202.2025329845451
 30
0.0
 10
235.564260038087
 20
-204.2662806112611
 30
0.0
 10
235.564260038087
 20
-204.2662806112611
 30
0.0
 10
235.1913673096615
 20
-204.429581256801
 30
0.0
 10
234.8370800593696
 20
-204.54718312156
 30
0.0
 10
234.5003399551242
 20
-204.6168425414532
 30
0.0
 10
234.1636210175202
 20
-204.6871369606154
 30
0.0
 10
233.768397482007
 20
-204.7220619204511
 30
0.0
 10
233.3159181804499
 20
-204.7220619204511
 30
0.0
 10
232.3878268966631
 20
-204.7220619204511
 30
0.0
 10
231.7185140577993
 20
-204.4888901885968
 30
0.0
 10
231.3079870402735
 20
-204.0231817241545
 30
0.0
 10
230.8987088546092
 20
-203.5576849261366
 30
0.0
 10
230.6936675955832
 20
-202.8422735821844
 30
0.0
 10
230.6936675955832
 20
-201.8773710251456
 30
0.0
 10
230.6936675955832
 20
-201.8773710251456
 30
0.0
 10
230.6936675955832
 20
-198.4962962466733
 30
0.0
 10
230.6936675955832
 20
-198.4962962466733
 30
0.0
 10
230.6936675955832
 20
-198.4962962466733
 30
0.0
 10
229.725441900159
 20
-198.4962962466733
 30
0.0
 10
229.725441900159
 20
-198.4962962466733
 30
0.0
 10
229.725441900159
 20
-198.4962962466733
 30
0.0
 10
229.725441900159
 20
-196.3757161853147
 30
0.0
 10
229.725441900159
 20
-196.3757161853147
 30
0.0
 10
229.725441900159
 20
-196.3757161853147
 30
0.0
 10
230.6936675955832
 20
-196.3757161853147
 30
0.0
 10
230.6936675955832
 20
-196.3757161853147
 30
0.0
 10
230.6936675955832
 20
-196.3757161853147
 30
0.0
 10
230.6936675955832
 20
-194.2815732602202
 30
0.0
 10
230.6936675955832
 20
-194.2815732602202
 30
0.0
 10
230.6936675955832
 20
-194.2815732602202
 30
0.0
 10
233.4790071554459
 20
-193.7968571509712
 30
0.0
 10
233.4790071554459
 20
-193.7968571509712
 30
0.0
 10
233.4790071554459
 20
-193.7968571509712
 30
0.0
 10
233.4790071554459
 20
-196.3757161853147
 30
0.0
 10
233.4790071554459
 20
-196.3757161853147
 30
0.0
 10
233.4790071554459
 20
-196.3757161853147
 30
0.0
 10
235.2428234158556
 20
-196.3757161853147
 30
0.0
 10
235.2428234158556
 20
-196.3757161853147
 30
0.0
 10
235.2428234158556
 20
-196.3757161853147
 30
0.0
 10
235.2428234158556
 20
-198.4962962466733
 30
0.0
 10
235.2428234158556
 20
-198.4962962466733
 30
0.0
 10
235.2428234158556
 20
-198.4962962466733
 30
0.0
 10
233.4790071554459
 20
-198.4962962466733
 30
0.0
 10
233.4790071554459
 20
-198.4962962466733
 30
0.0
 10
233.4790071554459
 20
-198.4962962466733
 30
0.0
 10
233.4790071554459
 20
-201.6888609085966
 30
0.0
 10
233.4790071554459
 20
-201.6888609085966
 30
0.0
 10
233.4790071554459
 20
-202.2196779648298
 30
0.0
 10
233.7289216950672
 20
-202.4852981593687
 30
0.0
 10
234.2279041086402
 20
-202.4852981593687
 30
0.0
  0
HATCH
  5
64
330
1F
100
AcDbEntity
  8
Layer 1
 62
   179
420
  1710616
100
AcDbHatch
 10
0.0
 20
0.0
 30
0.0
210
0.0
220
0.0
230
1.0
  2
SOLID
 70
     1
 71
     0
 91
        1
 92
        1
 93
        2
 72
     4
 94
        3
 73
     0
 74
     0
 95
       59
 96
       55
 40
0.0
 40
0.0
 40
0.0
 40
0.0
 40
0.3527777776895833
 40
0.3527777776895833
 40
0.3527777776895833
 40
0.7055555553791667
 40
0.7055555553791667
 40
0.7055555553791667
 40
1.05833333306875
 40
1.05833333306875
 40
1.05833333306875
 40
1.411111110758333
 40
1.411111110758333
 40
1.411111110758333
 40
1.763888888447917
 40
1.763888888447917
 40
1.763888888447917
 40
2.1166666661375
 40
2.1166666661375
 40
2.1166666661375
 40
2.469444443827083
 40
2.469444443827083
 40
2.469444443827083
 40
2.822222221516667
 40
2.822222221516667
 40
2.822222221516667
 40
3.17499999920625
 40
3.17499999920625
 40
3.17499999920625
 40
3.527777776895833
 40
3.527777776895833
 40
3.527777776895833
 40
3.880555554585417
 40
3.880555554585417
 40
3.880555554585417
 40
4.233333332275
 40
4.233333332275
 40
4.233333332275
 40
4.586111109964584
 40
4.586111109964584
 40
4.586111109964584
 40
4.938888887654167
 40
4.938888887654167
 40
4.938888887654167
 40
5.29166666534375
 40
5.29166666534375
 40
5.29166666534375
 40
5.644444443033334
 40
5.644444443033334
 40
5.644444443033334
 40
5.997222220722917
 40
5.997222220722917
 40
5.997222220722917
 40
6.349999998412501
 40
6.349999998412501
 40
6.349999998412501
 40
6.349999998412501
 10
234.2279041086402
 20
-202.4852981593687
 10
234.6007993517698
 20
-202.4852981593687
 10
235.0456349809312
 20
-202.3906197682484
 10
235.564260038087
 20
-202.2025329845451
 10
235.564260038087
 20
-202.2025329845451
 10
235.564260038087
 20
-204.2662806112611
 10
235.564260038087
 20
-204.2662806112611
 10
235.1913673096615
 20
-204.429581256801
 10
234.8370800593696
 20
-204.54718312156
 10
234.5003399551242
 20
-204.6168425414532
 10
234.1636210175202
 20
-204.6871369606154
 10
233.768397482007
 20
-204.7220619204511
 10
233.3159181804499
 20
-204.7220619204511
 10
232.3878268966631
 20
-204.7220619204511
 10
231.7185140577993
 20
-204.4888901885968
 10
231.3079870402735
 20
-204.0231817241545
 10
230.8987088546092
 20
-203.5576849261366
 10
230.6936675955832
 20
-202.8422735821844
 10
230.6936675955832
 20
-201.8773710251456
 10
230.6936675955832
 20
-201.8773710251456
 10
230.6936675955832
 20
-198.4962962466733
 10
230.6936675955832
 20
-198.4962962466733
 10
230.6936675955832
 20
-198.4962962466733
 10
229.725441900159
 20
-198.4962962466733
 10
229.725441900159
 20
-198.4962962466733
 10
229.725441900159
 20
-198.4962962466733
 10
229.725441900159
 20
-196.3757161853147
 10
229.725441900159
 20
-196.3757161853147
 10
229.725441900159
 20
-196.3757161853147
 10
230.6936675955832
 20
-196.3757161853147
 10
230.6936675955832
 20
-196.3757161853147
 10
230.6936675955832
 20
-196.3757161853147
 10
230.6936675955832
 20
-194.2815732602202
 10
230.6936675955832
 20
-194.2815732602202
 10
230.6936675955832
 20
-194.2815732602202
 10
233.4790071554459
 20
-193.7968571509712
 10
233.4790071554459
 20
-193.7968571509712
 10
233.4790071554459
 20
-193.7968571509712
 10
233.4790071554459
 20
-196.3757161853147
 10
233.4790071554459
 20
-196.3757161853147
 10
233.4790071554459
 20
-196.3757161853147
 10
235.2428234158556
 20
-196.3757161853147
 10
235.2428234158556
 20
-196.3757161853147
 10
235.2428234158556
 20
-196.3757161853147
 10
235.2428234158556
 20
-198.4962962466733
 10
235.2428234158556
 20
-198.4962962466733
 10
235.2428234158556
 20
-198.4962962466733
 10
233.4790071554459
 20
-198.4962962466733
 10
233.4790071554459
 20
-198.4962962466733
 10
233.4790071554459
 20
-198.4962962466733
 10
233.4790071554459
 20
-201.6888609085966
 10
233.4790071554459
 20
-201.6888609085966
 10
233.4790071554459
 20
-202.2196779648298
 10
233.7289216950672
 20
-202.4852981593687
 10
234.2279041086402
 20
-202.4852981593687
 97
        0
 72
     1
 10
234.2279041086402
 20
-202.4852981593687
 11
234.2279041086402
 21
-202.4852981593687
 97
        0
 75
     2
 76
     1
 98
        0
  0
SPLINE
  5
65
330
1F
100
AcDbEntity
  8
Layer 1
370
     0
100
AcDbSpline
210
0.0
220
0.0
230
1.0
 70
    11
 71
     3
 72
    59
 73
    55
 74
     0
 42
0.0000000001
 43
0.0000000001
 12
1.0
 22
0.0
 32
0.0
 13
1.0
 23
0.0
 33
0.0
 40
0.0
 40
0.0
 40
0.0
 40
0.0
 40
1.0
 40
1.0
 40
1.0
 40
2.0
 40
2.0
 40
2.0
 40
3.0
 40
3.0
 40
3.0
 40
4.0
 40
4.0
 40
4.0
 40
5.0
 40
5.0
 40
5.0
 40
6.0
 40
6.0
 40
6.0
 40
7.0
 40
7.0
 40
7.0
 40
8.0
 40
8.0
 40
8.0
 40
9.0
 40
9.0
 40
9.0
 40
10.0
 40
10.0
 40
10.0
 40
11.0
 40
11.0
 40
11.0
 40
12.0
 40
12.0
 40
12.0
 40
13.0
 40
13.0
 40
13.0
 40
14.0
 40
14.0
 40
14.0
 40
15.0
 40
15.0
 40
15.0
 40
16.0
 40
16.0
 40
16.0
 40
17.0
 40
17.0
 40
17.0
 40
18.0
 40
18.0
 40
18.0
 40
18.0
 10
240.6260719225264
 20
-202.4852981593687
 30
0.0
 10
240.9989646509462
 20
-202.4852981593687
 30
0.0
 10
241.4435911284035
 20
-202.3906197682484
 30
0.0
 10
241.9624066853293
 20
-202.2025329845451
 30
0.0
 10
241.9624066853293
 20
-202.2025329845451
 30
0.0
 10
241.9624066853293
 20
-204.2662806112611
 30
0.0
 10
241.9624066853293
 20
-204.2662806112611
 30
0.0
 10
241.5901277895171
 20
-204.429581256801
 30
0.0
 10
241.2352267066156
 20
-204.54718312156
 30
0.0
 10
240.8985104428092
 20
-204.6168425414532
 30
0.0
 10
240.5611538321509
 20
-204.6871369606154
 30
0.0
 10
240.1671791285063
 20
-204.7220619204511
 30
0.0
 10
239.7140859943361
 20
-204.7220619204511
 30
0.0
 10
238.7859710851027
 20
-204.7220619204511
 30
0.0
 10
238.1166607050457
 20
-204.4888901885968
 30
0.0
 10
237.7067686867706
 20
-204.0231817241545
 30
0.0
 10
237.2968555018521
 20
-203.5576849261366
 30
0.0
 10
237.091814242826
 20
-202.8422735821844
 30
0.0
 10
237.091814242826
 20
-201.8773710251456
 30
0.0
 10
237.091814242826
 20
-201.8773710251456
 30
0.0
 10
237.091814242826
 20
-198.4962962466733
 30
0.0
 10
237.091814242826
 20
-198.4962962466733
 30
0.0
 10
237.091814242826
 20
-198.4962962466733
 30
0.0
 10
236.1229747147897
 20
-198.4962962466733
 30
0.0
 10
236.1229747147897
 20
-198.4962962466733
 30
0.0
 10
236.1229747147897
 20
-198.4962962466733
 30
0.0
 10
236.1229747147897
 20
-196.3757161853147
 30
0.0
 10
236.1229747147897
 20
-196.3757161853147
 30
0.0
 10
236.1229747147897
 20
-196.3757161853147
 30
0.0
 10
237.091814242826
 20
-196.3757161853147
 30
0.0
 10
237.091814242826
 20
-196.3757161853147
 30
0.0
 10
237.091814242826
 20
-196.3757161853147
 30
0.0
 10
237.091814242826
 20
-194.2497386301642
 30
0.0
 10
237.091814242826
 20
-194.2497386301642
 30
0.0
 10
237.091814242826
 20
-194.2497386301642
 30
0.0
 10
239.8771749693321
 20
-193.7968571509712
 30
0.0
 10
239.8771749693321
 20
-193.7968571509712
 30
0.0
 10
239.8771749693321
 20
-193.7968571509712
 30
0.0
 10
239.8771749693321
 20
-196.3757161853147
 30
0.0
 10
239.8771749693321
 20
-196.3757161853147
 30
0.0
 10
239.8771749693321
 20
-196.3757161853147
 30
0.0
 10
241.6416050623494
 20
-196.3757161853147
 30
0.0
 10
241.6416050623494
 20
-196.3757161853147
 30
0.0
 10
241.6416050623494
 20
-196.3757161853147
 30
0.0
 10
241.6416050623494
 20
-198.4962962466733
 30
0.0
 10
241.6416050623494
 20
-198.4962962466733
 30
0.0
 10
241.6416050623494
 20
-198.4962962466733
 30
0.0
 10
239.8771749693321
 20
-198.4962962466733
 30
0.0
 10
239.8771749693321
 20
-198.4962962466733
 30
0.0
 10
239.8771749693321
 20
-198.4962962466733
 30
0.0
 10
239.8771749693321
 20
-201.6888609085966
 30
0.0
 10
239.8771749693321
 20
-201.6888609085966
 30
0.0
 10
239.8771749693321
 20
-202.2196779648298
 30
0.0
 10
240.126877842536
 20
-202.4852981593687
 30
0.0
 10
240.6260719225264
 20
-202.4852981593687
 30
0.0
  0
HATCH
  5
66
330
1F
100
AcDbEntity
  8
Layer 1
 62
   179
420
  1710616
100
AcDbHatch
 10
0.0
 20
0.0
 30
0.0
210
0.0
220
0.0
230
1.0
  2
SOLID
 70
     1
 71
     0
 91
        1
 92
        1
 93
        2
 72
     4
 94
        3
 73
     0
 74
     0
 95
       59
 96
       55
 40
0.0
 40
0.0
 40
0.0
 40
0.0
 40
0.3527777776895833
 40
0.3527777776895833
 40
0.3527777776895833
 40
0.7055555553791667
 40
0.7055555553791667
 40
0.7055555553791667
 40
1.05833333306875
 40
1.05833333306875
 40
1.05833333306875
 40
1.411111110758333
 40
1.411111110758333
 40
1.411111110758333
 40
1.763888888447917
 40
1.763888888447917
 40
1.763888888447917
 40
2.1166666661375
 40
2.1166666661375
 40
2.1166666661375
 40
2.469444443827083
 40
2.469444443827083
 40
2.469444443827083
 40
2.822222221516667
 40
2.822222221516667
 40
2.822222221516667
 40
3.17499999920625
 40
3.17499999920625
 40
3.17499999920625
 40
3.527777776895833
 40
3.527777776895833
 40
3.527777776895833
 40
3.880555554585417
 40
3.880555554585417
 40
3.880555554585417
 40
4.233333332275
 40
4.233333332275
 40
4.233333332275
 40
4.586111109964584
 40
4.586111109964584
 40
4.586111109964584
 40
4.938888887654167
 40
4.938888887654167
 40
4.938888887654167
 40
5.29166666534375
 40
5.29166666534375
 40
5.29166666534375
 40
5.644444443033334
 40
5.644444443033334
 40
5.644444443033334
 40
5.997222220722917
 40
5.997222220722917
 40
5.997222220722917
 40
6.349999998412501
 40
6.349999998412501
 40
6.349999998412501
 40
6.349999998412501
 10
240.6260719225264
 20
-202.4852981593687
 10
240.9989646509462
 20
-202.4852981593687
 10
241.4435911284035
 20
-202.3906197682484
 10
241.9624066853293
 20
-202.2025329845451
 10
241.9624066853293
 20
-202.2025329845451
 10
241.9624066853293
 20
-204.2662806112611
 10
241.9624066853293
 20
-204.2662806112611
 10
241.5901277895171
 20
-204.429581256801
 10
241.2352267066156
 20
-204.54718312156
 10
240.8985104428092
 20
-204.6168425414532
 10
240.5611538321509
 20
-204.6871369606154
 10
240.1671791285063
 20
-204.7220619204511
 10
239.7140859943361
 20
-204.7220619204511
 10
238.7859710851027
 20
-204.7220619204511
 10
238.1166607050457
 20
-204.4888901885968
 10
237.7067686867706
 20
-204.0231817241545
 10
237.2968555018521
 20
-203.5576849261366
 10
237.091814242826
 20
-202.8422735821844
 10
237.091814242826
 20
-201.8773710251456
 10
237.091814242826
 20
-201.8773710251456
 10
237.091814242826
 20
-198.4962962466733
 10
237.091814242826
 20
-198.4962962466733
 10
237.091814242826
 20
-198.4962962466733
 10
236.1229747147897
 20
-198.4962962466733
 10
236.1229747147897
 20
-198.4962962466733
 10
236.1229747147897
 20
-198.4962962466733
 10
236.1229747147897
 20
-196.3757161853147
 10
236.1229747147897
 20
-196.3757161853147
 10
236.1229747147897
 20
-196.3757161853147
 10
237.091814242826
 20
-196.3757161853147
 10
237.091814242826
 20
-196.3757161853147
 10
237.091814242826
 20
-196.3757161853147
 10
237.091814242826
 20
-194.2497386301642
 10
237.091814242826
 20
-194.2497386301642
 10
237.091814242826
 20
-194.2497386301642
 10
239.8771749693321
 20
-193.7968571509712
 10
239.8771749693321
 20
-193.7968571509712
 10
239.8771749693321
 20
-193.7968571509712
 10
239.8771749693321
 20
-196.3757161853147
 10
239.8771749693321
 20
-196.3757161853147
 10
239.8771749693321
 20
-196.3757161853147
 10
241.6416050623494
 20
-196.3757161853147
 10
241.6416050623494
 20
-196.3757161853147
 10
241.6416050623494
 20
-196.3757161853147
 10
241.6416050623494
 20
-198.4962962466733
 10
241.6416050623494
 20
-198.4962962466733
 10
241.6416050623494
 20
-198.4962962466733
 10
239.8771749693321
 20
-198.4962962466733
 10
239.8771749693321
 20
-198.4962962466733
 10
239.8771749693321
 20
-198.4962962466733
 10
239.8771749693321
 20
-201.6888609085966
 10
239.8771749693321
 20
-201.6888609085966
 10
239.8771749693321
 20
-202.2196779648298
 10
240.126877842536
 20
-202.4852981593687
 10
240.6260719225264
 20
-202.4852981593687
 97
        0
 72
     1
 10
240.6260719225264
 20
-202.4852981593687
 11
240.6260719225264
 21
-202.4852981593687
 97
        0
 75
     2
 76
     1
 98
        0
  0
SPLINE
  5
67
330
1F
100
AcDbEntity
  8
Layer 1
370
     0
100
AcDbSpline
210
0.0
220
0.0
230
1.0
 70
    11
 71
     3
 72
    50
 73
    46
 74
     0
 42
0.0000000001
 43
0.0000000001
 12
1.0
 22
0.0
 32
0.0
 13
1.0
 23
0.0
 33
0.0
 40
0.0
 40
0.0
 40
0.0
 40
0.0
 40
1.0
 40
1.0
 40
1.0
 40
2.0
 40
2.0
 40
2.0
 40
3.0
 40
3.0
 40
3.0
 40
4.0
 40
4.0
 40
4.0
 40
5.0
 40
5.0
 40
5.0
 40
6.0
 40
6.0
 40
6.0
 40
7.0
 40
7.0
 40
7.0
 40
8.0
 40
8.0
 40
8.0
 40
9.0
 40
9.0
 40
9.0
 40
10.0
 40
10.0
 40
10.0
 40
11.0
 40
11.0
 40
11.0
 40
12.0
 40
12.0
 40
12.0
 40
13.0
 40
13.0
 40
13.0
 40
14.0
 40
14.0
 40
14.0
 40
15.0
 40
15.0
 40
15.0
 40
15.0
 10
249.3488238377771
 20
-197.1971512406753
 30
0.0
 10
248.6919171098057
 20
-196.5528598149357
 30
0.0
 10
247.759677552555
 20
-196.2305976855331
 30
0.0
 10
246.5535571229123
 20
-196.2305976855331
 30
0.0
 10
245.2858234461518
 20
-196.2305976855331
 30
0.0
 10
244.3103799258766
 20
-196.6008022598008
 30
0.0
 10
243.6264010630541
 20
-197.3418464076105
 30
0.0
 10
242.9434381990366
 20
-198.0824672225725
 30
0.0
 10
242.601554600838
 20
-199.1453501669371
 30
0.0
 10
242.601554600838
 20
-200.5304952407004
 30
0.0
 10
242.601554600838
 20
-201.8719946979942
 30
0.0
 10
242.9707247264601
 20
-202.9063661751455
 30
0.0
 10
243.7078291340234
 20
-203.632509006758
 30
0.0
 10
244.4457829334107
 20
-204.3586730050097
 30
0.0
 10
245.4813608830126
 20
-204.7220619204511
 30
0.0
 10
246.8152403153724
 20
-204.7220619204511
 30
0.0
 10
247.4560180622972
 20
-204.7220619204511
 30
0.0
 10
248.0073032477291
 20
-204.6782469708386
 30
0.0
 10
248.4690958716752
 20
-204.5914214040203
 30
0.0
 10
248.9281791654719
 20
-204.5052308364721
 30
0.0
 10
249.3730173093429
 20
-204.3497830152355
 30
0.0
 10
249.804202969258
 20
-204.125099106952
 30
0.0
 10
249.804202969258
 20
-204.125099106952
 30
0.0
 10
249.3794308018036
 20
-202.2769337323201
 30
0.0
 10
249.3794308018036
 20
-202.2769337323201
 30
0.0
 10
249.065847003677
 20
-202.4048860851766
 30
0.0
 10
248.7675666875658
 20
-202.5032898053448
 30
0.0
 10
248.4862408515287
 20
-202.5681867307158
 30
0.0
 10
248.0792486631773
 20
-202.662441788989
 30
0.0
 10
247.6327595212473
 20
-202.7097915678726
 30
0.0
 10
247.1472179252146
 20
-202.7097915678726
 30
0.0
 10
246.6143265514931
 20
-202.7097915678726
 30
0.0
 10
246.1936818791886
 20
-202.5795532176438
 30
0.0
 10
245.8852627416593
 20
-202.3189071840504
 30
0.0
 10
245.5770764371911
 20
-202.0582399838139
 30
0.0
 10
245.41273863033
 20
-201.6983647309999
 30
0.0
 10
245.3939426524181
 20
-201.2398952582343
 30
0.0
 10
245.3939426524181
 20
-201.2398952582343
 30
0.0
 10
250.3352345906943
 20
-201.2398952582343
 30
0.0
 10
250.3352345906943
 20
-201.2398952582343
 30
0.0
 10
250.3352345906943
 20
-201.2398952582343
 30
0.0
 10
250.3352345906943
 20
-199.9808610394413
 30
0.0
 10
250.3352345906943
 20
-199.9808610394413
 30
0.0
 10
250.3352345906943
 20
-198.7693459326696
 30
0.0
 10
250.0061538985821
 20
-197.8412521666328
 30
0.0
 10
249.3488238377771
 20
-197.1971512406753
 30
0.0
  0
HATCH
  5
68
330
1F
100
AcDbEntity
  8
Layer 1
 62
   179
420
  1710616
100
AcDbHatch
 10
0.0
 20
0.0
 30
0.0
210
0.0
220
0.0
230
1.0
  2
SOLID
 70
     1
 71
     0
 91
        1
 92
        1
 93
        2
 72
     4
 94
        3
 73
     0
 74
     0
 95
       50
 96
       46
 40
0.0
 40
0.0
 40
0.0
 40
0.0
 40
0.3527777776895833
 40
0.3527777776895833
 40
0.3527777776895833
 40
0.7055555553791667
 40
0.7055555553791667
 40
0.7055555553791667
 40
1.05833333306875
 40
1.05833333306875
 40
1.05833333306875
 40
1.411111110758333
 40
1.411111110758333
 40
1.411111110758333
 40
1.763888888447917
 40
1.763888888447917
 40
1.763888888447917
 40
2.1166666661375
 40
2.1166666661375
 40
2.1166666661375
 40
2.469444443827083
 40
2.469444443827083
 40
2.469444443827083
 40
2.822222221516667
 40
2.822222221516667
 40
2.822222221516667
 40
3.17499999920625
 40
3.17499999920625
 40
3.17499999920625
 40
3.527777776895833
 40
3.527777776895833
 40
3.527777776895833
 40
3.880555554585417
 40
3.880555554585417
 40
3.880555554585417
 40
4.233333332275
 40
4.233333332275
 40
4.233333332275
 40
4.586111109964584
 40
4.586111109964584
 40
4.586111109964584
 40
4.938888887654167
 40
4.938888887654167
 40
4.938888887654167
 40
5.29166666534375
 40
5.29166666534375
 40
5.29166666534375
 40
5.29166666534375
 10
249.3488238377771
 20
-197.1971512406753
 10
248.6919171098057
 20
-196.5528598149357
 10
247.759677552555
 20
-196.2305976855331
 10
246.5535571229123
 20
-196.2305976855331
 10
245.2858234461518
 20
-196.2305976855331
 10
244.3103799258766
 20
-196.6008022598008
 10
243.6264010630541
 20
-197.3418464076105
 10
242.9434381990366
 20
-198.0824672225725
 10
242.601554600838
 20
-199.1453501669371
 10
242.601554600838
 20
-200.5304952407004
 10
242.601554600838
 20
-201.8719946979942
 10
242.9707247264601
 20
-202.9063661751455
 10
243.7078291340234
 20
-203.632509006758
 10
244.4457829334107
 20
-204.3586730050097
 10
245.4813608830126
 20
-204.7220619204511
 10
246.8152403153724
 20
-204.7220619204511
 10
247.4560180622972
 20
-204.7220619204511
 10
248.0073032477291
 20
-204.6782469708386
 10
248.4690958716752
 20
-204.5914214040203
 10
248.9281791654719
 20
-204.5052308364721
 10
249.3730173093429
 20
-204.3497830152355
 10
249.804202969258
 20
-204.125099106952
 10
249.804202969258
 20
-204.125099106952
 10
249.3794308018036
 20
-202.2769337323201
 10
249.3794308018036
 20
-202.2769337323201
 10
249.065847003677
 20
-202.4048860851766
 10
248.7675666875658
 20
-202.5032898053448
 10
248.4862408515287
 20
-202.5681867307158
 10
248.0792486631773
 20
-202.662441788989
 10
247.6327595212473
 20
-202.7097915678726
 10
247.1472179252146
 20
-202.7097915678726
 10
246.6143265514931
 20
-202.7097915678726
 10
246.1936818791886
 20
-202.5795532176438
 10
245.8852627416593
 20
-202.3189071840504
 10
245.5770764371911
 20
-202.0582399838139
 10
245.41273863033
 20
-201.6983647309999
 10
245.3939426524181
 20
-201.2398952582343
 10
245.3939426524181
 20
-201.2398952582343
 10
250.3352345906943
 20
-201.2398952582343
 10
250.3352345906943
 20
-201.2398952582343
 10
250.3352345906943
 20
-201.2398952582343
 10
250.3352345906943
 20
-199.9808610394413
 10
250.3352345906943
 20
-199.9808610394413
 10
250.3352345906943
 20
-198.7693459326696
 10
250.0061538985821
 20
-197.8412521666328
 10
249.3488238377771
 20
-197.1971512406753
 97
        0
 72
     1
 10
249.3488238377771
 20
-197.1971512406753
 11
249.3488238377771
 21
-197.1971512406753
 97
        0
 75
     2
 76
     1
 98
        0
  0
SPLINE
  5
69
330
1F
100
AcDbEntity
  8
Layer 1
370
     0
100
AcDbSpline
210
0.0
220
0.0
230
1.0
 70
    11
 71
     3
 72
    50
 73
    46
 74
     0
 42
0.0000000001
 43
0.0000000001
 12
1.0
 22
0.0
 32
0.0
 13
1.0
 23
0.0
 33
0.0
 40
0.0
 40
0.0
 40
0.0
 40
0.0
 40
1.0
 40
1.0
 40
1.0
 40
2.0
 40
2.0
 40
2.0
 40
3.0
 40
3.0
 40
3.0
 40
4.0
 40
4.0
 40
4.0
 40
5.0
 40
5.0
 40
5.0
 40
6.0
 40
6.0
 40
6.0
 40
7.0
 40
7.0
 40
7.0
 40
8.0
 40
8.0
 40
8.0
 40
9.0
 40
9.0
 40
9.0
 40
10.0
 40
10.0
 40
10.0
 40
11.0
 40
11.0
 40
11.0
 40
12.0
 40
12.0
 40
12.0
 40
13.0
 40
13.0
 40
13.0
 40
14.0
 40
14.0
 40
14.0
 40
15.0
 40
15.0
 40
15.0
 40
15.0
 10
210.8748328876715
 20
-197.1971512406753
 30
0.0
 10
210.2176298267148
 20
-196.5528598149357
 30
0.0
 10
209.2854720888994
 20
-196.2305976855331
 30
0.0
 10
208.0788465069872
 20
-196.2305976855331
 30
0.0
 10
206.8111146429071
 20
-196.2305976855331
 30
0.0
 10
205.835669309945
 20
-196.6008022598008
 30
0.0
 10
205.1525159461573
 20
-197.3418464076105
 30
0.0
 10
204.4691297493059
 20
-198.0824672225725
 30
0.0
 10
204.1272461511066
 20
-199.1453501669371
 30
0.0
 10
204.1272461511066
 20
-200.5304952407004
 30
0.0
 10
204.1272461511066
 20
-201.8719946979942
 30
0.0
 10
204.4960113843803
 20
-202.9063661751455
 30
0.0
 10
205.2338381839182
 20
-203.632509006758
 30
0.0
 10
205.971262817259
 20
-204.3586730050097
 30
0.0
 10
207.0069677667146
 20
-204.7220619204511
 30
0.0
 10
208.3407413658622
 20
-204.7220619204511
 30
0.0
 10
208.9814132795776
 20
-204.7220619204511
 30
0.0
 10
209.532910131433
 20
-204.6782469708386
 30
0.0
 10
209.994789315052
 20
-204.5914214040203
 30
0.0
 10
210.4537860491727
 20
-204.5052308364721
 30
0.0
 10
210.8986049423438
 20
-204.3497830152355
 30
0.0
 10
211.3298945195232
 20
-204.125099106952
 30
0.0
 10
211.3298945195232
 20
-204.125099106952
 30
0.0
 10
210.9051223520751
 20
-202.2769337323201
 30
0.0
 10
210.9051223520751
 20
-202.2769337323201
 30
0.0
 10
210.5915597205858
 20
-202.4048860851766
 30
0.0
 10
210.293469904249
 20
-202.5032898053448
 30
0.0
 10
210.0122499014228
 20
-202.5681867307158
 30
0.0
 10
209.6047285470292
 20
-202.662441788989
 30
0.0
 10
209.158366404948
 20
-202.7097915678726
 30
0.0
 10
208.6729094754832
 20
-202.7097915678726
 30
0.0
 10
208.1404414345969
 20
-202.7097915678726
 30
0.0
 10
207.7193752650852
 20
-202.5795532176438
 30
0.0
 10
207.4109772864038
 20
-202.3189071840504
 30
0.0
 10
207.102367641299
 20
-202.0582399838139
 30
0.0
 10
206.938557180445
 20
-201.6983647309999
 30
0.0
 10
206.9196342026842
 20
-201.2398952582343
 30
0.0
 10
206.9196342026842
 20
-201.2398952582343
 30
0.0
 10
211.8607115623475
 20
-201.2398952582343
 30
0.0
 10
211.8607115623475
 20
-201.2398952582343
 30
0.0
 10
211.8607115623475
 20
-201.2398952582343
 30
0.0
 10
211.8607115623475
 20
-199.9808610394413
 30
0.0
 10
211.8607115623475
 20
-199.9808610394413
 30
0.0
 10
211.8607115623475
 20
-198.7693459326696
 30
0.0
 10
211.5323746148939
 20
-197.8412521666328
 30
0.0
 10
210.8748328876715
 20
-197.1971512406753
 30
0.0
  0
HATCH
  5
6A
330
1F
100
AcDbEntity
  8
Layer 1
 62
   179
420
  1710616
100
AcDbHatch
 10
0.0
 20
0.0
 30
0.0
210
0.0
220
0.0
230
1.0
  2
SOLID
 70
     1
 71
     0
 91
        1
 92
        1
 93
        2
 72
     4
 94
        3
 73
     0
 74
     0
 95
       50
 96
       46
 40
0.0
 40
0.0
 40
0.0
 40
0.0
 40
0.3527777776895833
 40
0.3527777776895833
 40
0.3527777776895833
 40
0.7055555553791667
 40
0.7055555553791667
 40
0.7055555553791667
 40
1.05833333306875
 40
1.05833333306875
 40
1.05833333306875
 40
1.411111110758333
 40
1.411111110758333
 40
1.411111110758333
 40
1.763888888447917
 40
1.763888888447917
 40
1.763888888447917
 40
2.1166666661375
 40
2.1166666661375
 40
2.1166666661375
 40
2.469444443827083
 40
2.469444443827083
 40
2.469444443827083
 40
2.822222221516667
 40
2.822222221516667
 40
2.822222221516667
 40
3.17499999920625
 40
3.17499999920625
 40
3.17499999920625
 40
3.527777776895833
 40
3.527777776895833
 40
3.527777776895833
 40
3.880555554585417
 40
3.880555554585417
 40
3.880555554585417
 40
4.233333332275
 40
4.233333332275
 40
4.233333332275
 40
4.586111109964584
 40
4.586111109964584
 40
4.586111109964584
 40
4.938888887654167
 40
4.938888887654167
 40
4.938888887654167
 40
5.29166666534375
 40
5.29166666534375
 40
5.29166666534375
 40
5.29166666534375
 10
210.8748328876715
 20
-197.1971512406753
 10
210.2176298267148
 20
-196.5528598149357
 10
209.2854720888994
 20
-196.2305976855331
 10
208.0788465069872
 20
-196.2305976855331
 10
206.8111146429071
 20
-196.2305976855331
 10
205.835669309945
 20
-196.6008022598008
 10
205.1525159461573
 20
-197.3418464076105
 10
204.4691297493059
 20
-198.0824672225725
 10
204.1272461511066
 20
-199.1453501669371
 10
204.1272461511066
 20
-200.5304952407004
 10
204.1272461511066
 20
-201.8719946979942
 10
204.4960113843803
 20
-202.9063661751455
 10
205.2338381839182
 20
-203.632509006758
 10
205.971262817259
 20
-204.3586730050097
 10
207.0069677667146
 20
-204.7220619204511
 10
208.3407413658622
 20
-204.7220619204511
 10
208.9814132795776
 20
-204.7220619204511
 10
209.532910131433
 20
-204.6782469708386
 10
209.994789315052
 20
-204.5914214040203
 10
210.4537860491727
 20
-204.5052308364721
 10
210.8986049423438
 20
-204.3497830152355
 10
211.3298945195232
 20
-204.125099106952
 10
211.3298945195232
 20
-204.125099106952
 10
210.9051223520751
 20
-202.2769337323201
 10
210.9051223520751
 20
-202.2769337323201
 10
210.5915597205858
 20
-202.4048860851766
 10
210.293469904249
 20
-202.5032898053448
 10
210.0122499014228
 20
-202.5681867307158
 10
209.6047285470292
 20
-202.662441788989
 10
209.158366404948
 20
-202.7097915678726
 10
208.6729094754832
 20
-202.7097915678726
 10
208.1404414345969
 20
-202.7097915678726
 10
207.7193752650852
 20
-202.5795532176438
 10
207.4109772864038
 20
-202.3189071840504
 10
207.102367641299
 20
-202.0582399838139
 10
206.938557180445
 20
-201.6983647309999
 10
206.9196342026842
 20
-201.2398952582343
 10
206.9196342026842
 20
-201.2398952582343
 10
211.8607115623475
 20
-201.2398952582343
 10
211.8607115623475
 20
-201.2398952582343
 10
211.8607115623475
 20
-201.2398952582343
 10
211.8607115623475
 20
-199.9808610394413
 10
211.8607115623475
 20
-199.9808610394413
 10
211.8607115623475
 20
-198.7693459326696
 10
211.5323746148939
 20
-197.8412521666328
 10
210.8748328876715
 20
-197.1971512406753
 97
        0
 72
     1
 10
210.8748328876715
 20
-197.1971512406753
 11
210.8748328876715
 21
-197.1971512406753
 97
        0
 75
     2
 76
     1
 98
        0
  0
SPLINE
  5
6B
330
1F
100
AcDbEntity
  8
Layer 1
370
     0
100
AcDbSpline
210
0.0
220
0.0
230
1.0
 70
    11
 71
     3
 72
    26
 73
    22
 74
     0
 42
0.0000000001
 43
0.0000000001
 12
1.0
 22
0.0
 32
0.0
 13
1.0
 23
0.0
 33
0.0
 40
0.0
 40
0.0
 40
0.0
 40
0.0
 40
1.0
 40
1.0
 40
1.0
 40
2.0
 40
2.0
 40
2.0
 40
3.0
 40
3.0
 40
3.0
 40
4.0
 40
4.0
 40
4.0
 40
5.0
 40
5.0
 40
5.0
 40
6.0
 40
6.0
 40
6.0
 40
7.0
 40
7.0
 40
7.0
 40
7.0
 10
202.0779115132673
 20
-212.4091063638849
 30
0.0
 10
202.0779115132673
 20
-214.1520073416407
 30
0.0
 10
201.6207862721057
 20
-215.4697498783137
 30
0.0
 10
200.706890976456
 20
-216.3623339739116
 30
0.0
 10
199.7928180874712
 20
-217.2549180695082
 30
0.0
 10
198.4502124840666
 20
-217.7013877106402
 30
0.0
 10
196.6790741662413
 20
-217.7013877106402
 30
0.0
 10
196.6790741662413
 20
-217.7013877106402
 30
0.0
 10
194.1927674932669
 20
-217.7013877106402
 30
0.0
 10
194.1927674932669
 20
-217.7013877106402
 30
0.0
 10
194.1927674932669
 20
-217.7013877106402
 30
0.0
 10
194.1927674932669
 20
-207.3157295509696
 30
0.0
 10
194.1927674932669
 20
-207.3157295509696
 30
0.0
 10
194.1927674932669
 20
-207.3157295509696
 30
0.0
 10
196.9987421670526
 20
-207.3157295509696
 30
0.0
 10
196.9987421670526
 20
-207.3157295509696
 30
0.0
 10
198.6562207512551
 20
-207.3157295509696
 30
0.0
 10
199.9171334211205
 20
-207.7490572854002
 30
0.0
 10
200.7814801766454
 20
-208.6157127542647
 30
0.0
 10
201.6456493388357
 20
-209.4823682231311
 30
0.0
 10
202.0779115132673
 20
-210.7468327596709
 30
0.0
 10
202.0779115132673
 20
-212.4091063638849
 30
0.0
  0
HATCH
  5
6C
330
1F
100
AcDbEntity
  8
Layer 1
 62
   179
420
  1710616
100
AcDbHatch
 10
0.0
 20
0.0
 30
0.0
210
0.0
220
0.0
230
1.0
  2
SOLID
 70
     1
 71
     0
 91
        1
 92
        1
 93
        1
 72
     4
 94
        3
 73
     0
 74
     1
 95
       26
 96
       22
 40
0.0
 40
0.0
 40
0.0
 40
0.0
 40
1.0
 40
1.0
 40
1.0
 40
2.0
 40
2.0
 40
2.0
 40
3.0
 40
3.0
 40
3.0
 40
4.0
 40
4.0
 40
4.0
 40
5.0
 40
5.0
 40
5.0
 40
6.0
 40
6.0
 40
6.0
 40
7.0
 40
7.0
 40
7.0
 40
7.0
 10
202.0779115132673
 20
-212.4091063638849
 10
202.0779115132673
 20
-214.1520073416407
 10
201.6207862721057
 20
-215.4697498783137
 10
200.706890976456
 20
-216.3623339739116
 10
199.7928180874712
 20
-217.2549180695082
 10
198.4502124840666
 20
-217.7013877106402
 10
196.6790741662413
 20
-217.7013877106402
 10
196.6790741662413
 20
-217.7013877106402
 10
194.1927674932669
 20
-217.7013877106402
 10
194.1927674932669
 20
-217.7013877106402
 10
194.1927674932669
 20
-217.7013877106402
 10
194.1927674932669
 20
-207.3157295509696
 10
194.1927674932669
 20
-207.3157295509696
 10
194.1927674932669
 20
-207.3157295509696
 10
196.9987421670526
 20
-207.3157295509696
 10
196.9987421670526
 20
-207.3157295509696
 10
198.6562207512551
 20
-207.3157295509696
 10
199.9171334211205
 20
-207.7490572854002
 10
200.7814801766454
 20
-208.6157127542647
 10
201.6456493388357
 20
-209.4823682231311
 10
202.0779115132673
 20
-210.7468327596709
 10
202.0779115132673
 20
-212.4091063638849
 97
        0
 97
        0
 75
     2
 76
     1
 98
        0
  0
POLYLINE
  5
6D
330
1F
100
AcDbEntity
  8
Layer 1
370
     0
100
AcDb2dPolyline
 66
     1
 10
0.0
 20
0.0
 30
0.0
  0
VERTEX
  5
6E
330
6D
100
AcDbEntity
  8
Layer 1
370
     0
100
AcDbVertex
100
AcDb2dVertex
 10
204.1645056616364
 20
-217.7013877106402
 30
0.0
  0
VERTEX
  5
6F
330
6D
100
AcDbEntity
  8
Layer 1
370
     0
100
AcDbVertex
100
AcDb2dVertex
 10
203.4612360598505
 20
-217.7013877106402
 30
0.0
  0
VERTEX
  5
70
330
6D
100
AcDbEntity
  8
Layer 1
370
     0
100
AcDbVertex
100
AcDb2dVertex
 10
203.4612360598505
 20
-209.9796295577239
 30
0.0
  0
VERTEX
  5
71
330
6D
100
AcDbEntity
  8
Layer 1
370
     0
100
AcDbVertex
100
AcDb2dVertex
 10
204.1645056616364
 20
-209.9796295577239
 30
0.0
  0
VERTEX
  5
72
330
6D
100
AcDbEntity
  8
Layer 1
370
     0
100
AcDbVertex
100
AcDb2dVertex
 10
204.1645056616364
 20
-217.7013877106402
 30
0.0
  0
SEQEND
  5
74
330
6D
100
AcDbEntity
  8
Layer 1
370
     0
  0
HATCH
  5
73
330
1F
100
AcDbEntity
  8
Layer 1
 62
   179
420
  1710616
100
AcDbHatch
 10
0.0
 20
0.0
 30
0.0
210
0.0
220
0.0
230
1.0
  2
SOLID
 70
     1
 71
     0
 91
        1
 92
        1
 93
        4
 72
     1
 10
204.1645056616364
 20
-217.7013877106402
 11
203.4612360598505
 21
-217.7013877106402
 72
     1
 10
203.4612360598505
 20
-217.7013877106402
 11
203.4612360598505
 21
-209.9796295577239
 72
     1
 10
203.4612360598505
 20
-209.9796295577239
 11
204.1645056616364
 21
-209.9796295577239
 72
     1
 10
204.1645056616364
 20
-209.9796295577239
 11
204.1645056616364
 21
-217.7013877106402
 97
        0
 75
     2
 76
     1
 98
        0
  0
POLYLINE
  5
75
330
1F
100
AcDbEntity
  8
Layer 1
370
     0
100
AcDb2dPolyline
 66
     1
 10
0.0
 20
0.0
 30
0.0
  0
VERTEX
  5
76
330
75
100
AcDbEntity
  8
Layer 1
370
     0
100
AcDbVertex
100
AcDb2dVertex
 10
204.1645056616364
 20
-209.0799089034649
 30
0.0
  0
VERTEX
  5
77
330
75
100
AcDbEntity
  8
Layer 1
370
     0
100
AcDbVertex
100
AcDb2dVertex
 10
203.4612360598505
 20
-209.0799089034649
 30
0.0
  0
VERTEX
  5
78
330
75
100
AcDbEntity
  8
Layer 1
370
     0
100
AcDbVertex
100
AcDb2dVertex
 10
203.4612360598505
 20
-208.1113476863204
 30
0.0
  0
VERTEX
  5
79
330
75
100
AcDbEntity
  8
Layer 1
370
     0
100
AcDbVertex
100
AcDb2dVertex
 10
204.1645056616364
 20
-208.1113476863204
 30
0.0
  0
VERTEX
  5
7A
330
75
100
AcDbEntity
  8
Layer 1
370
     0
100
AcDbVertex
100
AcDb2dVertex
 10
204.1645056616364
 20
-209.0799089034649
 30
0.0
  0
SEQEND
  5
7C
330
75
100
AcDbEntity
  8
Layer 1
370
     0
  0
HATCH
  5
7B
330
1F
100
AcDbEntity
  8
Layer 1
 62
   179
420
  1710616
100
AcDbHatch
 10
0.0
 20
0.0
 30
0.0
210
0.0
220
0.0
230
1.0
  2
SOLID
 70
     1
 71
     0
 91
        1
 92
        1
 93
        4
 72
     1
 10
204.1645056616364
 20
-209.0799089034649
 11
203.4612360598505
 21
-209.0799089034649
 72
     1
 10
203.4612360598505
 20
-209.0799089034649
 11
203.4612360598505
 21
-208.1113476863204
 72
     1
 10
203.4612360598505
 20
-208.1113476863204
 11
204.1645056616364
 21
-208.1113476863204
 72
     1
 10
204.1645056616364
 20
-208.1113476863204
 11
204.1645056616364
 21
-209.0799089034649
 97
        0
 75
     2
 76
     1
 98
        0
  0
POLYLINE
  5
7D
330
1F
100
AcDbEntity
  8
Layer 1
370
     0
100
AcDb2dPolyline
 66
     1
 10
0.0
 20
0.0
 30
0.0
  0
VERTEX
  5
7E
330
7D
100
AcDbEntity
  8
Layer 1
370
     0
100
AcDbVertex
100
AcDb2dVertex
 10
213.8719849493311
 20
-217.7013877106402
 30
0.0
  0
VERTEX
  5
7F
330
7D
100
AcDbEntity
  8
Layer 1
370
     0
100
AcDbVertex
100
AcDb2dVertex
 10
213.1687153475459
 20
-217.7013877106402
 30
0.0
  0
VERTEX
  5
80
330
7D
100
AcDbEntity
  8
Layer 1
370
     0
100
AcDbVertex
100
AcDb2dVertex
 10
213.1687153475459
 20
-209.9796295577239
 30
0.0
  0
VERTEX
  5
81
330
7D
100
AcDbEntity
  8
Layer 1
370
     0
100
AcDbVertex
100
AcDb2dVertex
 10
213.8719849493311
 20
-209.9796295577239
 30
0.0
  0
VERTEX
  5
82
330
7D
100
AcDbEntity
  8
Layer 1
370
     0
100
AcDbVertex
100
AcDb2dVertex
 10
213.8719849493311
 20
-217.7013877106402
 30
0.0
  0
SEQEND
  5
84
330
7D
100
AcDbEntity
  8
Layer 1
370
     0
  0
HATCH
  5
83
330
1F
100
AcDbEntity
  8
Layer 1
 62
   179
420
  1710616
100
AcDbHatch
 10
0.0
 20
0.0
 30
0.0
210
0.0
220
0.0
230
1.0
  2
SOLID
 70
     1
 71
     0
 91
        1
 92
        1
 93
        4
 72
     1
 10
213.8719849493311
 20
-217.7013877106402
 11
213.1687153475459
 21
-217.7013877106402
 72
     1
 10
213.1687153475459
 20
-217.7013877106402
 11
213.1687153475459
 21
-209.9796295577239
 72
     1
 10
213.1687153475459
 20
-209.9796295577239
 11
213.8719849493311
 21
-209.9796295577239
 72
     1
 10
213.8719849493311
 20
-209.9796295577239
 11
213.8719849493311
 21
-217.7013877106402
 97
        0
 75
     2
 76
     1
 98
        0
  0
POLYLINE
  5
85
330
1F
100
AcDbEntity
  8
Layer 1
370
     0
100
AcDb2dPolyline
 66
     1
 10
0.0
 20
0.0
 30
0.0
  0
VERTEX
  5
86
330
85
100
AcDbEntity
  8
Layer 1
370
     0
100
AcDbVertex
100
AcDb2dVertex
 10
213.8719849493311
 20
-209.0799089034649
 30
0.0
  0
VERTEX
  5
87
330
85
100
AcDbEntity
  8
Layer 1
370
     0
100
AcDbVertex
100
AcDb2dVertex
 10
213.1687153475459
 20
-209.0799089034649
 30
0.0
  0
VERTEX
  5
88
330
85
100
AcDbEntity
  8
Layer 1
370
     0
100
AcDbVertex
100
AcDb2dVertex
 10
213.1687153475459
 20
-208.1113476863204
 30
0.0
  0
VERTEX
  5
89
330
85
100
AcDbEntity
  8
Layer 1
370
     0
100
AcDbVertex
100
AcDb2dVertex
 10
213.8719849493311
 20
-208.1113476863204
 30
0.0
  0
VERTEX
  5
8A
330
85
100
AcDbEntity
  8
Layer 1
370
     0
100
AcDbVertex
100
AcDb2dVertex
 10
213.8719849493311
 20
-209.0799089034649
 30
0.0
  0
SEQEND
  5
8C
330
85
100
AcDbEntity
  8
Layer 1
370
     0
  0
HATCH
  5
8B
330
1F
100
AcDbEntity
  8
Layer 1
 62
   179
420
  1710616
100
AcDbHatch
 10
0.0
 20
0.0
 30
0.0
210
0.0
220
0.0
230
1.0
  2
SOLID
 70
     1
 71
     0
 91
        1
 92
        1
 93
        4
 72
     1
 10
213.8719849493311
 20
-209.0799089034649
 11
213.1687153475459
 21
-209.0799089034649
 72
     1
 10
213.1687153475459
 20
-209.0799089034649
 11
213.1687153475459
 21
-208.1113476863204
 72
     1
 10
213.1687153475459
 20
-208.1113476863204
 11
213.8719849493311
 21
-208.1113476863204
 72
     1
 10
213.8719849493311
 20
-208.1113476863204
 11
213.8719849493311
 21
-209.0799089034649
 97
        0
 75
     2
 76
     1
 98
        0
  0
SPLINE
  5
8D
330
1F
100
AcDbEntity
  8
Layer 1
370
     0
100
AcDbSpline
210
0.0
220
0.0
230
1.0
 70
    11
 71
     3
 72
    89
 73
    85
 74
     0
 42
0.0000000001
 43
0.0000000001
 12
1.0
 22
0.0
 32
0.0
 13
1.0
 23
0.0
 33
0.0
 40
0.0
 40
0.0
 40
0.0
 40
0.0
 40
1.0
 40
1.0
 40
1.0
 40
2.0
 40
2.0
 40
2.0
 40
3.0
 40
3.0
 40
3.0
 40
4.0
 40
4.0
 40
4.0
 40
5.0
 40
5.0
 40
5.0
 40
6.0
 40
6.0
 40
6.0
 40
7.0
 40
7.0
 40
7.0
 40
8.0
 40
8.0
 40
8.0
 40
9.0
 40
9.0
 40
9.0
 40
10.0
 40
10.0
 40
10.0
 40
11.0
 40
11.0
 40
11.0
 40
12.0
 40
12.0
 40
12.0
 40
13.0
 40
13.0
 40
13.0
 40
14.0
 40
14.0
 40
14.0
 40
15.0
 40
15.0
 40
15.0
 40
16.0
 40
16.0
 40
16.0
 40
17.0
 40
17.0
 40
17.0
 40
18.0
 40
18.0
 40
18.0
 40
19.0
 40
19.0
 40
19.0
 40
20.0
 40
20.0
 40
20.0
 40
21.0
 40
21.0
 40
21.0
 40
22.0
 40
22.0
 40
22.0
 40
23.0
 40
23.0
 40
23.0
 40
24.0
 40
24.0
 40
24.0
 40
25.0
 40
25.0
 40
25.0
 40
26.0
 40
26.0
 40
26.0
 40
27.0
 40
27.0
 40
27.0
 40
28.0
 40
28.0
 40
28.0
 40
28.0
 10
211.9337313044149
 20
-209.9796295577239
 30
0.0
 10
211.9337313044149
 20
-209.9796295577239
 30
0.0
 10
211.9337313044149
 20
-210.4697871589685
 30
0.0
 10
211.9337313044149
 20
-210.4697871589685
 30
0.0
 10
211.9337313044149
 20
-210.4697871589685
 30
0.0
 10
210.3353913003657
 20
-210.5692394258865
 30
0.0
 10
210.3353913003657
 20
-210.5692394258865
 30
0.0
 10
210.7616153014429
 20
-211.0995331205643
 30
0.0
 10
210.9747273019848
 20
-211.6820392553742
 30
0.0
 10
210.9747273019848
 20
-212.3167578303189
 30
0.0
 10
210.9747273019848
 20
-213.0601635255369
 30
0.0
 10
210.7271621946915
 20
-213.6629153003983
 30
0.0
 10
210.2323871667658
 20
-214.1246579682359
 30
0.0
 10
209.7374345455148
 20
-214.5864006360735
 30
0.0
 10
209.0732354771625
 20
-214.817271969993
 30
0.0
 10
208.2397899617153
 20
-214.817271969993
 30
0.0
 10
207.889220720826
 20
-214.817271969993
 30
0.0
 10
207.643076360199
 20
-214.8030645032894
 30
0.0
 10
207.501001693173
 20
-214.7746495698838
 30
0.0
 10
207.221469785797
 20
-214.9213416635915
 30
0.0
 10
207.0083577852581
 20
-215.0943175706967
 30
0.0
 10
206.8616656915536
 20
-215.2932221045334
 30
0.0
 10
206.7147960045145
 20
-215.4921266383714
 30
0.0
 10
206.6414499576619
 20
-215.7027523322382
 30
0.0
 10
206.6414499576619
 20
-215.9254543728027
 30
0.0
 10
206.6414499576619
 20
-216.1715987334272
 30
0.0
 10
206.734864051233
 20
-216.3516783738838
 30
0.0
 10
206.9220474250403
 20
-216.4653381075054
 30
0.0
 10
207.1090532055151
 20
-216.5789978411276
 30
0.0
 10
207.4228606263102
 20
-216.635827707937
 30
0.0
 10
207.8632920940941
 20
-216.635827707937
 30
0.0
 10
207.8632920940941
 20
-216.635827707937
 30
0.0
 10
209.2130014308489
 20
-216.635827707937
 30
0.0
 10
209.2130014308489
 20
-216.635827707937
 30
0.0
 10
210.051241966307
 20
-216.635827707937
 30
0.0
 10
210.692886681266
 20
-216.8052517483678
 30
0.0
 10
211.1381131690641
 20
-217.1437446425589
 30
0.0
 10
211.5831620635259
 20
-217.4822375367513
 30
0.0
 10
211.8058641040892
 20
-217.9830507380205
 30
0.0
 10
211.8058641040892
 20
-218.646184246369
 30
0.0
 10
211.8058641040892
 20
-219.4606272751019
 30
0.0
 10
211.4755405032546
 20
-220.0893076766968
 30
0.0
 10
210.8148933015754
 20
-220.5322254511517
 30
0.0
 10
210.1542460999033
 20
-220.974788038942
 30
0.0
 10
209.2130014308489
 20
-221.196424519503
 30
0.0
 10
207.9911592944198
 20
-221.196424519503
 30
0.0
 10
207.020256538622
 20
-221.196424519503
 30
0.0
 10
206.2685039567142
 20
-221.0092411456969
 30
0.0
 10
205.7357239553643
 20
-220.635229584748
 30
0.0
 10
205.2029439540143
 20
-220.26086283713
 30
0.0
 10
204.9365539533393
 20
-219.7401591824766
 30
0.0
 10
204.9365539533393
 20
-219.0724082474502
 30
0.0
 10
204.9365539533393
 20
-218.541759366104
 30
0.0
 10
205.1010053804208
 20
-218.1013278983219
 30
0.0
 10
205.4302634212561
 20
-217.7511138441008
 30
0.0
 10
205.7593438687597
 20
-217.4005446032099
 30
0.0
 10
206.2056359165565
 20
-217.1615039759382
 30
0.0
 10
206.7693171579879
 20
-217.0336367756131
 30
0.0
 10
206.5372026707317
 20
-216.9341845086944
 30
0.0
 10
206.3512624502591
 20
-216.7931754016694
 30
0.0
 10
206.2116740899047
 20
-216.6109646412083
 30
0.0
 10
206.071908136218
 20
-216.4287538807454
 30
0.0
 10
206.0021139560396
 20
-216.2191937468822
 30
0.0
 10
206.0021139560396
 20
-215.9822842396141
 30
0.0
 10
206.0021139560396
 20
-215.4661980116373
 30
0.0
 10
206.3311944035397
 20
-215.0115590771531
 30
0.0
 10
206.9895328918799
 20
-214.6183674361549
 30
0.0
 10
206.5395113840713
 20
-214.4336703690198
 30
0.0
 10
206.1891197365137
 20
-214.143482861616
 30
0.0
 10
205.9381803558764
 20
-213.7481601006148
 30
0.0
 10
205.6870633819065
 20
-213.3528373396128
 30
0.0
 10
205.5616824882553
 20
-212.8992639651289
 30
0.0
 10
205.5616824882553
 20
-212.3877951638319
 30
0.0
 10
205.5616824882553
 20
-211.6159745352089
 30
0.0
 10
205.8067612888773
 20
-210.9965289869705
 30
0.0
 10
206.2969188901209
 20
-210.5301688924537
 30
0.0
 10
206.7870764913642
 20
-210.0638087979382
 30
0.0
 10
207.4487892530427
 20
-209.8304511573465
 30
0.0
 10
208.2824123618219
 20
-209.8304511573465
 30
0.0
 10
208.7890861431074
 20
-209.8304511573465
 30
0.0
 10
209.1821001907681
 20
-209.8801772908058
 30
0.0
 10
209.4616320981472
 20
-209.9796295577239
 30
0.0
 10
209.4616320981472
 20
-209.9796295577239
 30
0.0
 10
211.9337313044149
 20
-209.9796295577239
 30
0.0
 10
211.9337313044149
 20
-209.9796295577239
 30
0.0
  0
HATCH
  5
8E
330
1F
100
AcDbEntity
  8
Layer 1
 62
   179
420
  1710616
100
AcDbHatch
 10
0.0
 20
0.0
 30
0.0
210
0.0
220
0.0
230
1.0
  2
SOLID
 70
     1
 71
     0
 91
        1
 92
        1
 93
        1
 72
     4
 94
        3
 73
     0
 74
     1
 95
       89
 96
       85
 40
0.0
 40
0.0
 40
0.0
 40
0.0
 40
1.0
 40
1.0
 40
1.0
 40
2.0
 40
2.0
 40
2.0
 40
3.0
 40
3.0
 40
3.0
 40
4.0
 40
4.0
 40
4.0
 40
5.0
 40
5.0
 40
5.0
 40
6.0
 40
6.0
 40
6.0
 40
7.0
 40
7.0
 40
7.0
 40
8.0
 40
8.0
 40
8.0
 40
9.0
 40
9.0
 40
9.0
 40
10.0
 40
10.0
 40
10.0
 40
11.0
 40
11.0
 40
11.0
 40
12.0
 40
12.0
 40
12.0
 40
13.0
 40
13.0
 40
13.0
 40
14.0
 40
14.0
 40
14.0
 40
15.0
 40
15.0
 40
15.0
 40
16.0
 40
16.0
 40
16.0
 40
17.0
 40
17.0
 40
17.0
 40
18.0
 40
18.0
 40
18.0
 40
19.0
 40
19.0
 40
19.0
 40
20.0
 40
20.0
 40
20.0
 40
21.0
 40
21.0
 40
21.0
 40
22.0
 40
22.0
 40
22.0
 40
23.0
 40
23.0
 40
23.0
 40
24.0
 40
24.0
 40
24.0
 40
25.0
 40
25.0
 40
25.0
 40
26.0
 40
26.0
 40
26.0
 40
27.0
 40
27.0
 40
27.0
 40
28.0
 40
28.0
 40
28.0
 40
28.0
 10
211.9337313044149
 20
-209.9796295577239
 10
211.9337313044149
 20
-209.9796295577239
 10
211.9337313044149
 20
-210.4697871589685
 10
211.9337313044149
 20
-210.4697871589685
 10
211.9337313044149
 20
-210.4697871589685
 10
210.3353913003657
 20
-210.5692394258865
 10
210.3353913003657
 20
-210.5692394258865
 10
210.7616153014429
 20
-211.0995331205643
 10
210.9747273019848
 20
-211.6820392553742
 10
210.9747273019848
 20
-212.3167578303189
 10
210.9747273019848
 20
-213.0601635255369
 10
210.7271621946915
 20
-213.6629153003983
 10
210.2323871667658
 20
-214.1246579682359
 10
209.7374345455148
 20
-214.5864006360735
 10
209.0732354771625
 20
-214.817271969993
 10
208.2397899617153
 20
-214.817271969993
 10
207.889220720826
 20
-214.817271969993
 10
207.643076360199
 20
-214.8030645032894
 10
207.501001693173
 20
-214.7746495698838
 10
207.221469785797
 20
-214.9213416635915
 10
207.0083577852581
 20
-215.0943175706967
 10
206.8616656915536
 20
-215.2932221045334
 10
206.7147960045145
 20
-215.4921266383714
 10
206.6414499576619
 20
-215.7027523322382
 10
206.6414499576619
 20
-215.9254543728027
 10
206.6414499576619
 20
-216.1715987334272
 10
206.734864051233
 20
-216.3516783738838
 10
206.9220474250403
 20
-216.4653381075054
 10
207.1090532055151
 20
-216.5789978411276
 10
207.4228606263102
 20
-216.635827707937
 10
207.8632920940941
 20
-216.635827707937
 10
207.8632920940941
 20
-216.635827707937
 10
209.2130014308489
 20
-216.635827707937
 10
209.2130014308489
 20
-216.635827707937
 10
210.051241966307
 20
-216.635827707937
 10
210.692886681266
 20
-216.8052517483678
 10
211.1381131690641
 20
-217.1437446425589
 10
211.5831620635259
 20
-217.4822375367513
 10
211.8058641040892
 20
-217.9830507380205
 10
211.8058641040892
 20
-218.646184246369
 10
211.8058641040892
 20
-219.4606272751019
 10
211.4755405032546
 20
-220.0893076766968
 10
210.8148933015754
 20
-220.5322254511517
 10
210.1542460999033
 20
-220.974788038942
 10
209.2130014308489
 20
-221.196424519503
 10
207.9911592944198
 20
-221.196424519503
 10
207.020256538622
 20
-221.196424519503
 10
206.2685039567142
 20
-221.0092411456969
 10
205.7357239553643
 20
-220.635229584748
 10
205.2029439540143
 20
-220.26086283713
 10
204.9365539533393
 20
-219.7401591824766
 10
204.9365539533393
 20
-219.0724082474502
 10
204.9365539533393
 20
-218.541759366104
 10
205.1010053804208
 20
-218.1013278983219
 10
205.4302634212561
 20
-217.7511138441008
 10
205.7593438687597
 20
-217.4005446032099
 10
206.2056359165565
 20
-217.1615039759382
 10
206.7693171579879
 20
-217.0336367756131
 10
206.5372026707317
 20
-216.9341845086944
 10
206.3512624502591
 20
-216.7931754016694
 10
206.2116740899047
 20
-216.6109646412083
 10
206.071908136218
 20
-216.4287538807454
 10
206.0021139560396
 20
-216.2191937468822
 10
206.0021139560396
 20
-215.9822842396141
 10
206.0021139560396
 20
-215.4661980116373
 10
206.3311944035397
 20
-215.0115590771531
 10
206.9895328918799
 20
-214.6183674361549
 10
206.5395113840713
 20
-214.4336703690198
 10
206.1891197365137
 20
-214.143482861616
 10
205.9381803558764
 20
-213.7481601006148
 10
205.6870633819065
 20
-213.3528373396128
 10
205.5616824882553
 20
-212.8992639651289
 10
205.5616824882553
 20
-212.3877951638319
 10
205.5616824882553
 20
-211.6159745352089
 10
205.8067612888773
 20
-210.9965289869705
 10
206.2969188901209
 20
-210.5301688924537
 10
206.7870764913642
 20
-210.0638087979382
 10
207.4487892530427
 20
-209.8304511573465
 10
208.2824123618219
 20
-209.8304511573465
 10
208.7890861431074
 20
-209.8304511573465
 10
209.1821001907681
 20
-209.8801772908058
 10
209.4616320981472
 20
-209.9796295577239
 10
209.4616320981472
 20
-209.9796295577239
 10
211.9337313044149
 20
-209.9796295577239
 10
211.9337313044149
 20
-209.9796295577239
 97
        0
 97
        0
 75
     2
 76
     1
 98
        0
  0
SPLINE
  5
8F
330
1F
100
AcDbEntity
  8
Layer 1
370
     0
100
AcDbSpline
210
0.0
220
0.0
230
1.0
 70
    11
 71
     3
 72
    62
 73
    58
 74
     0
 42
0.0000000001
 43
0.0000000001
 12
1.0
 22
0.0
 32
0.0
 13
1.0
 23
0.0
 33
0.0
 40
0.0
 40
0.0
 40
0.0
 40
0.0
 40
1.0
 40
1.0
 40
1.0
 40
2.0
 40
2.0
 40
2.0
 40
3.0
 40
3.0
 40
3.0
 40
4.0
 40
4.0
 40
4.0
 40
5.0
 40
5.0
 40
5.0
 40
6.0
 40
6.0
 40
6.0
 40
7.0
 40
7.0
 40
7.0
 40
8.0
 40
8.0
 40
8.0
 40
9.0
 40
9.0
 40
9.0
 40
10.0
 40
10.0
 40
10.0
 40
11.0
 40
11.0
 40
11.0
 40
12.0
 40
12.0
 40
12.0
 40
13.0
 40
13.0
 40
13.0
 40
14.0
 40
14.0
 40
14.0
 40
15.0
 40
15.0
 40
15.0
 40
16.0
 40
16.0
 40
16.0
 40
17.0
 40
17.0
 40
17.0
 40
18.0
 40
18.0
 40
18.0
 40
19.0
 40
19.0
 40
19.0
 40
19.0
 10
225.2045707647365
 20
-217.7013877106402
 30
0.0
 10
225.2045707647365
 20
-217.7013877106402
 30
0.0
 10
225.0269774309547
 20
-216.4795455742089
 30
0.0
 10
225.0269774309547
 20
-216.4795455742089
 30
0.0
 10
225.0269774309547
 20
-216.4795455742089
 30
0.0
 10
224.9701475641413
 20
-216.4795455742089
 30
0.0
 10
224.9701475641413
 20
-216.4795455742089
 30
0.0
 10
224.5817509431569
 20
-216.9768069088036
 30
0.0
 10
224.1826987221454
 20
-217.3284417096941
 30
0.0
 10
223.7731684944397
 20
-217.5344499768848
 30
0.0
 10
223.3634606734017
 20
-217.7404582440717
 30
0.0
 10
222.8791636521698
 20
-217.8434623776662
 30
0.0
 10
222.3204550240889
 20
-217.8434623776662
 30
0.0
 10
221.5626642688364
 20
-217.8434623776662
 30
0.0
 10
220.9730544006693
 20
-217.6491752705086
 30
0.0
 10
220.5516254196029
 20
-217.2609562428568
 30
0.0
 10
220.1300188452013
 20
-216.8727372152051
 30
0.0
 10
219.9193931513339
 20
-216.3349846005081
 30
0.0
 10
219.9193931513339
 20
-215.6484087720996
 30
0.0
 10
219.9193931513339
 20
-214.8954130368587
 30
0.0
 10
220.233022978797
 20
-214.3104205953752
 30
0.0
 10
220.860637820388
 20
-213.8937866343165
 30
0.0
 10
221.4880750686465
 20
-213.4771526732615
 30
0.0
 10
222.3961097842798
 20
-213.2569369393686
 30
0.0
 10
223.5849195606269
 20
-213.2331394326427
 30
0.0
 10
223.5849195606269
 20
-213.2331394326427
 30
0.0
 10
225.0553923643578
 20
-213.1905170325335
 30
0.0
 10
225.0553923643578
 20
-213.1905170325335
 30
0.0
 10
225.0553923643578
 20
-213.1905170325335
 30
0.0
 10
225.0553923643578
 20
-212.6790482312379
 30
0.0
 10
225.0553923643578
 20
-212.6790482312379
 30
0.0
 10
225.0553923643578
 20
-211.9448773893744
 30
0.0
 10
224.9062139639823
 20
-211.3907861879708
 30
0.0
 10
224.6078571632237
 20
-211.0167746270219
 30
0.0
 10
224.3095003624695
 20
-210.6427630660737
 30
0.0
 10
223.8287552079147
 20
-210.455579692265
 30
0.0
 10
223.1657992929004
 20
-210.455579692265
 30
0.0
 10
222.4506309377542
 20
-210.455579692265
 30
0.0
 10
221.7095339558726
 20
-210.654484226103
 30
0.0
 10
220.9423307539307
 20
-211.0522932937778
 30
0.0
 10
220.9423307539307
 20
-211.0522932937778
 30
0.0
 10
220.6794926199289
 20
-210.4413722255628
 30
0.0
 10
220.6794926199289
 20
-210.4413722255628
 30
0.0
 10
221.5271456020793
 20
-210.0435631578867
 30
0.0
 10
222.3653861375377
 20
-209.84465862405
 30
0.0
 10
223.1942142263058
 20
-209.84465862405
 30
0.0
 10
224.0418672084539
 20
-209.84465862405
 30
0.0
 10
224.6753426300606
 20
-210.0648743579404
 30
0.0
 10
225.0944628977907
 20
-210.5053058257243
 30
0.0
 10
225.5135831655216
 20
-210.945737293509
 30
0.0
 10
225.7231432993836
 20
-211.6323131219148
 30
0.0
 10
225.7231432993836
 20
-212.5653884976163
 30
0.0
 10
225.7231432993836
 20
-212.5653884976163
 30
0.0
 10
225.7231432993836
 20
-217.7013877106402
 30
0.0
 10
225.7231432993836
 20
-217.7013877106402
 30
0.0
 10
225.7231432993836
 20
-217.7013877106402
 30
0.0
 10
225.2045707647365
 20
-217.7013877106402
 30
0.0
 10
225.2045707647365
 20
-217.7013877106402
 30
0.0
  0
HATCH
  5
90
330
1F
100
AcDbEntity
  8
Layer 1
 62
   179
420
  1710616
100
AcDbHatch
 10
0.0
 20
0.0
 30
0.0
210
0.0
220
0.0
230
1.0
  2
SOLID
 70
     1
 71
     0
 91
        1
 92
        1
 93
        1
 72
     4
 94
        3
 73
     0
 74
     1
 95
       62
 96
       58
 40
0.0
 40
0.0
 40
0.0
 40
0.0
 40
1.0
 40
1.0
 40
1.0
 40
2.0
 40
2.0
 40
2.0
 40
3.0
 40
3.0
 40
3.0
 40
4.0
 40
4.0
 40
4.0
 40
5.0
 40
5.0
 40
5.0
 40
6.0
 40
6.0
 40
6.0
 40
7.0
 40
7.0
 40
7.0
 40
8.0
 40
8.0
 40
8.0
 40
9.0
 40
9.0
 40
9.0
 40
10.0
 40
10.0
 40
10.0
 40
11.0
 40
11.0
 40
11.0
 40
12.0
 40
12.0
 40
12.0
 40
13.0
 40
13.0
 40
13.0
 40
14.0
 40
14.0
 40
14.0
 40
15.0
 40
15.0
 40
15.0
 40
16.0
 40
16.0
 40
16.0
 40
17.0
 40
17.0
 40
17.0
 40
18.0
 40
18.0
 40
18.0
 40
19.0
 40
19.0
 40
19.0
 40
19.0
 10
225.2045707647365
 20
-217.7013877106402
 10
225.2045707647365
 20
-217.7013877106402
 10
225.0269774309547
 20
-216.4795455742089
 10
225.0269774309547
 20
-216.4795455742089
 10
225.0269774309547
 20
-216.4795455742089
 10
224.9701475641413
 20
-216.4795455742089
 10
224.9701475641413
 20
-216.4795455742089
 10
224.5817509431569
 20
-216.9768069088036
 10
224.1826987221454
 20
-217.3284417096941
 10
223.7731684944397
 20
-217.5344499768848
 10
223.3634606734017
 20
-217.7404582440717
 10
222.8791636521698
 20
-217.8434623776662
 10
222.3204550240889
 20
-217.8434623776662
 10
221.5626642688364
 20
-217.8434623776662
 10
220.9730544006693
 20
-217.6491752705086
 10
220.5516254196029
 20
-217.2609562428568
 10
220.1300188452013
 20
-216.8727372152051
 10
219.9193931513339
 20
-216.3349846005081
 10
219.9193931513339
 20
-215.6484087720996
 10
219.9193931513339
 20
-214.8954130368587
 10
220.233022978797
 20
-214.3104205953752
 10
220.860637820388
 20
-213.8937866343165
 10
221.4880750686465
 20
-213.4771526732615
 10
222.3961097842798
 20
-213.2569369393686
 10
223.5849195606269
 20
-213.2331394326427
 10
223.5849195606269
 20
-213.2331394326427
 10
225.0553923643578
 20
-213.1905170325335
 10
225.0553923643578
 20
-213.1905170325335
 10
225.0553923643578
 20
-213.1905170325335
 10
225.0553923643578
 20
-212.6790482312379
 10
225.0553923643578
 20
-212.6790482312379
 10
225.0553923643578
 20
-211.9448773893744
 10
224.9062139639823
 20
-211.3907861879708
 10
224.6078571632237
 20
-211.0167746270219
 10
224.3095003624695
 20
-210.6427630660737
 10
223.8287552079147
 20
-210.455579692265
 10
223.1657992929004
 20
-210.455579692265
 10
222.4506309377542
 20
-210.455579692265
 10
221.7095339558726
 20
-210.654484226103
 10
220.9423307539307
 20
-211.0522932937778
 10
220.9423307539307
 20
-211.0522932937778
 10
220.6794926199289
 20
-210.4413722255628
 10
220.6794926199289
 20
-210.4413722255628
 10
221.5271456020793
 20
-210.0435631578867
 10
222.3653861375377
 20
-209.84465862405
 10
223.1942142263058
 20
-209.84465862405
 10
224.0418672084539
 20
-209.84465862405
 10
224.6753426300606
 20
-210.0648743579404
 10
225.0944628977907
 20
-210.5053058257243
 10
225.5135831655216
 20
-210.945737293509
 10
225.7231432993836
 20
-211.6323131219148
 10
225.7231432993836
 20
-212.5653884976163
 10
225.7231432993836
 20
-212.5653884976163
 10
225.7231432993836
 20
-217.7013877106402
 10
225.7231432993836
 20
-217.7013877106402
 10
225.7231432993836
 20
-217.7013877106402
 10
225.2045707647365
 20
-217.7013877106402
 10
225.2045707647365
 20
-217.7013877106402
 97
        0
 97
        0
 75
     2
 76
     1
 98
        0
  0
POLYLINE
  5
91
330
1F
100
AcDbEntity
  8
Layer 1
370
     0
100
AcDb2dPolyline
 66
     1
 10
0.0
 20
0.0
 30
0.0
  0
VERTEX
  5
92
330
91
100
AcDbEntity
  8
Layer 1
370
     0
100
AcDbVertex
100
AcDb2dVertex
 10
228.4032042995154
 20
-217.7013877106402
 30
0.0
  0
VERTEX
  5
93
330
91
100
AcDbEntity
  8
Layer 1
370
     0
100
AcDbVertex
100
AcDb2dVertex
 10
227.6999346977334
 20
-217.7013877106402
 30
0.0
  0
VERTEX
  5
94
330
91
100
AcDbEntity
  8
Layer 1
370
     0
100
AcDbVertex
100
AcDb2dVertex
 10
227.6999346977334
 20
-206.6479786159413
 30
0.0
  0
VERTEX
  5
95
330
91
100
AcDbEntity
  8
Layer 1
370
     0
100
AcDbVertex
100
AcDb2dVertex
 10
228.4032042995154
 20
-206.6479786159413
 30
0.0
  0
VERTEX
  5
96
330
91
100
AcDbEntity
  8
Layer 1
370
     0
100
AcDbVertex
100
AcDb2dVertex
 10
228.4032042995154
 20
-217.7013877106402
 30
0.0
  0
SEQEND
  5
98
330
91
100
AcDbEntity
  8
Layer 1
370
     0
  0
HATCH
  5
97
330
1F
100
AcDbEntity
  8
Layer 1
 62
   179
420
  1710616
100
AcDbHatch
 10
0.0
 20
0.0
 30
0.0
210
0.0
220
0.0
230
1.0
  2
SOLID
 70
     1
 71
     0
 91
        1
 92
        1
 93
        4
 72
     1
 10
228.4032042995154
 20
-217.7013877106402
 11
227.6999346977334
 21
-217.7013877106402
 72
     1
 10
227.6999346977334
 20
-217.7013877106402
 11
227.6999346977334
 21
-206.6479786159413
 72
     1
 10
227.6999346977334
 20
-206.6479786159413
 11
228.4032042995154
 21
-206.6479786159413
 72
     1
 10
228.4032042995154
 20
-206.6479786159413
 11
228.4032042995154
 21
-217.7013877106402
 97
        0
 75
     2
 76
     1
 98
        0
  0
SPLINE
  5
99
330
1F
100
AcDbEntity
  8
Layer 1
370
     0
100
AcDbSpline
210
0.0
220
0.0
230
1.0
 70
    11
 71
     3
 72
    59
 73
    55
 74
     0
 42
0.0000000001
 43
0.0000000001
 12
1.0
 22
0.0
 32
0.0
 13
1.0
 23
0.0
 33
0.0
 40
0.0
 40
0.0
 40
0.0
 40
0.0
 40
1.0
 40
1.0
 40
1.0
 40
2.0
 40
2.0
 40
2.0
 40
3.0
 40
3.0
 40
3.0
 40
4.0
 40
4.0
 40
4.0
 40
5.0
 40
5.0
 40
5.0
 40
6.0
 40
6.0
 40
6.0
 40
7.0
 40
7.0
 40
7.0
 40
8.0
 40
8.0
 40
8.0
 40
9.0
 40
9.0
 40
9.0
 40
10.0
 40
10.0
 40
10.0
 40
11.0
 40
11.0
 40
11.0
 40
12.0
 40
12.0
 40
12.0
 40
13.0
 40
13.0
 40
13.0
 40
14.0
 40
14.0
 40
14.0
 40
15.0
 40
15.0
 40
15.0
 40
16.0
 40
16.0
 40
16.0
 40
17.0
 40
17.0
 40
17.0
 40
18.0
 40
18.0
 40
18.0
 40
18.0
 10
218.0600073437465
 20
-217.21833359282
 30
0.0
 10
218.5050562382122
 20
-217.21833359282
 30
0.0
 10
218.8934528591969
 20
-217.1805062127255
 30
0.0
 10
219.2250196133721
 20
-217.1046738591997
 30
0.0
 10
219.2250196133721
 20
-217.1046738591997
 30
0.0
 10
219.2250196133721
 20
-217.6729725273068
 30
0.0
 10
219.2250196133721
 20
-217.6729725273068
 30
0.0
 10
218.8840404125075
 20
-217.786632260929
 30
0.0
 10
218.4908487715087
 20
-217.8434621277385
 30
0.0
 10
218.0457998770462
 20
-217.8434621277385
 30
0.0
 10
217.3638414753175
 20
-217.8434621277385
 30
0.0
 10
216.8605419673723
 20
-217.6612513672775
 30
0.0
 10
216.5362565398856
 20
-217.2964746596857
 30
0.0
 10
216.2117935190605
 20
-216.9318755454281
 30
0.0
 10
216.0496508053186
 20
-216.3587818573076
 30
0.0
 10
216.0496508053186
 20
-215.5773711886603
 30
0.0
 10
216.0496508053186
 20
-215.5773711886603
 30
0.0
 10
216.0496508053186
 20
-210.5905503760125
 30
0.0
 10
216.0496508053186
 20
-210.5905503760125
 30
0.0
 10
216.0496508053186
 20
-210.5905503760125
 30
0.0
 10
214.9059497357527
 20
-210.5905503760125
 30
0.0
 10
214.9059497357527
 20
-210.5905503760125
 30
0.0
 10
214.9059497357527
 20
-210.5905503760125
 30
0.0
 10
214.9059497357527
 20
-209.9796293077975
 30
0.0
 10
214.9059497357527
 20
-209.9796293077975
 30
0.0
 10
214.9059497357527
 20
-209.9796293077975
 30
0.0
 10
216.0496508053186
 20
-209.9796293077975
 30
0.0
 10
216.0496508053186
 20
-209.9796293077975
 30
0.0
 10
216.0496508053186
 20
-209.9796293077975
 30
0.0
 10
216.0496508053186
 20
-208.2476148474722
 30
0.0
 10
216.0496508053186
 20
-208.2476148474722
 30
0.0
 10
216.0496508053186
 20
-208.2476148474722
 30
0.0
 10
216.7671278738047
 20
-208.1113474363928
 30
0.0
 10
216.7671278738047
 20
-208.1113474363928
 30
0.0
 10
216.7671278738047
 20
-208.1113474363928
 30
0.0
 10
216.7671278738047
 20
-209.9796293077975
 30
0.0
 10
216.7671278738047
 20
-209.9796293077975
 30
0.0
 10
216.7671278738047
 20
-209.9796293077975
 30
0.0
 10
219.0332188128865
 20
-209.9796293077975
 30
0.0
 10
219.0332188128865
 20
-209.9796293077975
 30
0.0
 10
219.0332188128865
 20
-209.9796293077975
 30
0.0
 10
219.0332188128865
 20
-210.5905503760125
 30
0.0
 10
219.0332188128865
 20
-210.5905503760125
 30
0.0
 10
219.0332188128865
 20
-210.5905503760125
 30
0.0
 10
216.7671278738047
 20
-210.5905503760125
 30
0.0
 10
216.7671278738047
 20
-210.5905503760125
 30
0.0
 10
216.7671278738047
 20
-210.5905503760125
 30
0.0
 10
216.7671278738047
 20
-215.477918921739
 30
0.0
 10
216.7671278738047
 20
-215.477918921739
 30
0.0
 10
216.7671278738047
 20
-216.0700150965758
 30
0.0
 10
216.8711975674026
 20
-216.5079602576856
 30
0.0
 10
217.0796921412653
 20
-216.7921095917408
 30
0.0
 10
217.2880091217937
 20
-217.076258925794
 30
0.0
 10
217.6147808559548
 20
-217.21833359282
 30
0.0
 10
218.0600073437465
 20
-217.21833359282
 30
0.0
  0
HATCH
  5
9A
330
1F
100
AcDbEntity
  8
Layer 1
 62
   179
420
  1710616
100
AcDbHatch
 10
0.0
 20
0.0
 30
0.0
210
0.0
220
0.0
230
1.0
  2
SOLID
 70
     1
 71
     0
 91
        1
 92
        1
 93
        1
 72
     4
 94
        3
 73
     0
 74
     1
 95
       59
 96
       55
 40
0.0
 40
0.0
 40
0.0
 40
0.0
 40
1.0
 40
1.0
 40
1.0
 40
2.0
 40
2.0
 40
2.0
 40
3.0
 40
3.0
 40
3.0
 40
4.0
 40
4.0
 40
4.0
 40
5.0
 40
5.0
 40
5.0
 40
6.0
 40
6.0
 40
6.0
 40
7.0
 40
7.0
 40
7.0
 40
8.0
 40
8.0
 40
8.0
 40
9.0
 40
9.0
 40
9.0
 40
10.0
 40
10.0
 40
10.0
 40
11.0
 40
11.0
 40
11.0
 40
12.0
 40
12.0
 40
12.0
 40
13.0
 40
13.0
 40
13.0
 40
14.0
 40
14.0
 40
14.0
 40
15.0
 40
15.0
 40
15.0
 40
16.0
 40
16.0
 40
16.0
 40
17.0
 40
17.0
 40
17.0
 40
18.0
 40
18.0
 40
18.0
 40
18.0
 10
218.0600073437465
 20
-217.21833359282
 10
218.5050562382122
 20
-217.21833359282
 10
218.8934528591969
 20
-217.1805062127255
 10
219.2250196133721
 20
-217.1046738591997
 10
219.2250196133721
 20
-217.1046738591997
 10
219.2250196133721
 20
-217.6729725273068
 10
219.2250196133721
 20
-217.6729725273068
 10
218.8840404125075
 20
-217.786632260929
 10
218.4908487715087
 20
-217.8434621277385
 10
218.0457998770462
 20
-217.8434621277385
 10
217.3638414753175
 20
-217.8434621277385
 10
216.8605419673723
 20
-217.6612513672775
 10
216.5362565398856
 20
-217.2964746596857
 10
216.2117935190605
 20
-216.9318755454281
 10
216.0496508053186
 20
-216.3587818573076
 10
216.0496508053186
 20
-215.5773711886603
 10
216.0496508053186
 20
-215.5773711886603
 10
216.0496508053186
 20
-210.5905503760125
 10
216.0496508053186
 20
-210.5905503760125
 10
216.0496508053186
 20
-210.5905503760125
 10
214.9059497357527
 20
-210.5905503760125
 10
214.9059497357527
 20
-210.5905503760125
 10
214.9059497357527
 20
-210.5905503760125
 10
214.9059497357527
 20
-209.9796293077975
 10
214.9059497357527
 20
-209.9796293077975
 10
214.9059497357527
 20
-209.9796293077975
 10
216.0496508053186
 20
-209.9796293077975
 10
216.0496508053186
 20
-209.9796293077975
 10
216.0496508053186
 20
-209.9796293077975
 10
216.0496508053186
 20
-208.2476148474722
 10
216.0496508053186
 20
-208.2476148474722
 10
216.0496508053186
 20
-208.2476148474722
 10
216.7671278738047
 20
-208.1113474363928
 10
216.7671278738047
 20
-208.1113474363928
 10
216.7671278738047
 20
-208.1113474363928
 10
216.7671278738047
 20
-209.9796293077975
 10
216.7671278738047
 20
-209.9796293077975
 10
216.7671278738047
 20
-209.9796293077975
 10
219.0332188128865
 20
-209.9796293077975
 10
219.0332188128865
 20
-209.9796293077975
 10
219.0332188128865
 20
-209.9796293077975
 10
219.0332188128865
 20
-210.5905503760125
 10
219.0332188128865
 20
-210.5905503760125
 10
219.0332188128865
 20
-210.5905503760125
 10
216.7671278738047
 20
-210.5905503760125
 10
216.7671278738047
 20
-210.5905503760125
 10
216.7671278738047
 20
-210.5905503760125
 10
216.7671278738047
 20
-215.477918921739
 10
216.7671278738047
 20
-215.477918921739
 10
216.7671278738047
 20
-216.0700150965758
 10
216.8711975674026
 20
-216.5079602576856
 10
217.0796921412653
 20
-216.7921095917408
 10
217.2880091217937
 20
-217.076258925794
 10
217.6147808559548
 20
-217.21833359282
 10
218.0600073437465
 20
-217.21833359282
 97
        0
 97
        0
 75
     2
 76
     1
 98
        0
  0
ENDSEC
  0
SECTION
  2
OBJECTS
  0
DICTIONARY
  5
C
330
0
100
AcDbDictionary
281
     1
  3
ACAD_GROUP
350
D
  3
ACAD_LAYOUT
350
1A
  3
ACAD_MATERIAL
350
3B
  3
ACAD_MLEADERSTYLE
350
9C
  3
ACAD_MLINESTYLE
350
17
  3
ACAD_PLOTSETTINGS
350
19
  3
ACAD_PLOTSTYLENAME
350
E
  3
ACAD_TABLESTYLE
350
9B
  3
ACAD_VISUALSTYLE
350
2A
  0
SUN
  5
3F
330
29
100
AcDbSun
 90
        1
290
     0
 63
     7
421
 16777215
 40
1.0
291
     1
 91
  2455826
 92
 54000000
292
     0
 70
     2
 71
   256
280
     1
  0
DICTIONARY
  5
D
102
{ACAD_REACTORS
330
C
102
}
330
C
100
AcDbDictionary
281
     1
  0
DICTIONARY
  5
1A
102
{ACAD_REACTORS
330
C
102
}
330
C
100
AcDbDictionary
281
     1
  3
Layout1
350
1E
  3
Layout2
350
26
  3
Model
350
22
  0
DICTIONARY
  5
3B
102
{ACAD_REACTORS
330
C
102
}
330
C
100
AcDbDictionary
281
     1
  3
ByBlock
350
3D
  3
ByLayer
350
3C
  3
Global
350
3E
  0
DICTIONARY
  5
9C
102
{ACAD_REACTORS
330
C
102
}
330
C
100
AcDbDictionary
281
     1
  0
DICTIONARY
  5
17
102
{ACAD_REACTORS
330
C
102
}
330
C
100
AcDbDictionary
281
     1
  3
Standard
350
18
  0
DICTIONARY
  5
19
102
{ACAD_REACTORS
330
C
102
}
330
C
100
AcDbDictionary
281
     1
  0
ACDBDICTIONARYWDFLT
  5
E
102
{ACAD_REACTORS
330
C
102
}
330
C
100
AcDbDictionary
281
     1
  3
Normal
350
F
100
AcDbDictionaryWithDefault
340
F
  0
DICTIONARY
  5
9B
102
{ACAD_REACTORS
330
C
102
}
330
C
100
AcDbDictionary
281
     1
  0
DICTIONARY
  5
2A
102
{ACAD_REACTORS
330
C
102
}
330
C
100
AcDbDictionary
281
     1
  3
2dWireframe
350
2F
  3
3D Hidden
350
31
  3
3dWireframe
350
30
  3
Basic
350
32
  3
Brighten
350
36
  3
ColorChange
350
3A
  3
Conceptual
350
34
  3
Dim
350
35
  3
Facepattern
350
39
  3
Flat
350
2B
  3
FlatWithEdges
350
2C
  3
Gouraud
350
2D
  3
GouraudWithEdges
350
2E
  3
Linepattern
350
38
  3
Realistic
350
33
  3
Thicken
350
37
  0
LAYOUT
  5
1E
102
{ACAD_REACTORS
330
1A
102
}
330
1A
100
AcDbPlotSettings
  1

  2
none_device
  4

  6

 40
0.0
 41
0.0
 42
0.0
 43
0.0
 44
0.0
 45
0.0
 46
0.0
 47
0.0
 48
0.0
 49
0.0
140
0.0
141
0.0
142
1.0
143
1.0
 70
   688
 72
     0
 73
     0
 74
     5
  7

 75
    16
 76
     0
 77
     2
 78
   300
147
1.0
148
0.0
149
0.0
100
AcDbLayout
  1
Layout1
 70
     1
 71
     1
 10
0.0
 20
0.0
 11
12.0
 21
9.0
 12
0.0
 22
0.0
 32
0.0
 14
1.000000000000000E+20
 24
1.000000000000000E+20
 34
1.000000000000000E+20
 15
-1.000000000000000E+20
 25
-1.000000000000000E+20
 35
-1.000000000000000E+20
146
0.0
 13
0.0
 23
0.0
 33
0.0
 16
1.0
 26
0.0
 36
0.0
 17
0.0
 27
1.0
 37
0.0
 76
     0
330
1B
  0
LAYOUT
  5
26
102
{ACAD_REACTORS
330
1A
102
}
330
1A
100
AcDbPlotSettings
  1

  2
none_device
  4

  6

 40
0.0
 41
0.0
 42
0.0
 43
0.0
 44
0.0
 45
0.0
 46
0.0
 47
0.0
 48
0.0
 49
0.0
140
0.0
141
0.0
142
1.0
143
1.0
 70
   688
 72
     0
 73
     0
 74
     5
  7

 75
    16
 76
     0
 77
     2
 78
   300
147
1.0
148
0.0
149
0.0
100
AcDbLayout
  1
Layout2
 70
     1
 71
     2
 10
0.0
 20
0.0
 11
0.0
 21
0.0
 12
0.0
 22
0.0
 32
0.0
 14
0.0
 24
0.0
 34
0.0
 15
0.0
 25
0.0
 35
0.0
146
0.0
 13
0.0
 23
0.0
 33
0.0
 16
1.0
 26
0.0
 36
0.0
 17
0.0
 27
1.0
 37
0.0
 76
     0
330
23
  0
LAYOUT
  5
22
102
{ACAD_REACTORS
330
1A
102
}
330
1A
100
AcDbPlotSettings
  1

  2
none_device
  4

  6

 40
0.0
 41
0.0
 42
0.0
 43
0.0
 44
0.0
 45
0.0
 46
0.0
 47
0.0
 48
0.0
 49
0.0
140
0.0
141
0.0
142
1.0
143
1.0
 70
  1712
 72
     0
 73
     0
 74
     0
  7

 75
     0
 76
     0
 77
     2
 78
   300
147
1.0
148
0.0
149
0.0
100
AcDbLayout
  1
Model
 70
     1
 71
     0
 10
0.0
 20
0.0
 11
12.0
 21
9.0
 12
0.0
 22
0.0
 32
0.0
 14
1.000000000000000E+20
 24
1.000000000000000E+20
 34
1.000000000000000E+20
 15
-1.000000000000000E+20
 25
-1.000000000000000E+20
 35
-1.000000000000000E+20
146
0.0
 13
0.0
 23
0.0
 33
0.0
 16
1.0
 26
0.0
 36
0.0
 17
0.0
 27
1.0
 37
0.0
 76
     0
330
1F
331
29
  0
MATERIAL
  5
3D
102
{ACAD_REACTORS
330
3B
102
}
330
3B
100
AcDbMaterial
  1
ByBlock
 72
     1
 94
      127
  0
MATERIAL
  5
3C
102
{ACAD_REACTORS
330
3B
102
}
330
3B
100
AcDbMaterial
  1
ByLayer
 72
     1
 94
      127
  0
MATERIAL
  5
3E
102
{ACAD_REACTORS
330
3B
102
}
330
3B
100
AcDbMaterial
  1
Global
 72
     1
 94
      127
  0
MLINESTYLE
  5
18
102
{ACAD_REACTORS
330
17
102
}
330
17
100
AcDbMlineStyle
  2
Standard
 70
     0
  3

 62
   256
 51
90.0
 52
90.0
 71
     2
 49
0.5
 62
   256
  6
BYLAYER
 49
-0.5
 62
   256
  6
BYLAYER
  0
ACDBPLACEHOLDER
  5
F
102
{ACAD_REACTORS
330
E
102
}
330
E
  0
VISUALSTYLE
  5
2F
102
{ACAD_REACTORS
330
2A
102
}
330
2A
100
AcDbVisualStyle
  2
2dWireframe
 70
     4
177
     2
291
     0
 71
     0
176
     1
 72
     2
176
     1
 73
     0
176
     1
 90
        0
176
     1
 40
-0.6
176
     1
 41
-30.0
176
     1
 62
     5
 63
     7
421
 16777215
176
     1
 74
     1
176
     1
 91
        4
176
     1
 64
     7
176
     1
 65
   257
176
     1
 75
     1
176
     1
175
     1
176
     1
 42
1.0
176
     1
 92
        0
176
     1
 66
   257
176
     1
 43
1.0
176
     1
 76
     1
176
     1
 77
     6
176
     1
 78
     2
176
     1
 67
     7
176
     1
 79
     5
176
     1
170
     0
176
     1
171
     0
176
     1
290
     0
176
     1
 93
        1
176
     1
 44
0.0
176
     1
173
     0
176
     1
  0
VISUALSTYLE
  5
31
102
{ACAD_REACTORS
330
2A
102
}
330
2A
100
AcDbVisualStyle
  2
3D Hidden
 70
     6
177
     2
291
     0
 71
     1
176
     1
 72
     2
176
     1
 73
     2
176
     1
 90
        0
176
     1
 40
-0.6
176
     1
 41
-30.0
176
     1
 62
     5
 63
     7
421
 16777215
176
     1
 74
     2
176
     1
 91
        2
176
     1
 64
     7
176
     1
 65
   257
176
     1
 75
     2
176
     1
175
     1
176
     1
 42
40.0
176
     1
 92
        0
176
     1
 66
   257
176
     1
 43
1.0
176
     1
 76
     1
176
     1
 77
     6
176
     1
 78
     2
176
     1
 67
     7
176
     1
 79
     3
176
     1
170
     0
176
     1
171
     0
176
     1
290
     0
176
     1
 93
        1
176
     1
 44
0.0
176
     1
173
     0
176
     1
  0
VISUALSTYLE
  5
30
102
{ACAD_REACTORS
330
2A
102
}
330
2A
100
AcDbVisualStyle
  2
3dWireframe
 70
     5
177
     2
291
     0
 71
     0
176
     1
 72
     2
176
     1
 73
     0
176
     1
 90
        0
176
     1
 40
-0.6
176
     1
 41
-30.0
176
     1
 62
     5
 63
     7
421
 16777215
176
     1
 74
     1
176
     1
 91
        4
176
     1
 64
     7
176
     1
 65
   257
176
     1
 75
     1
176
     1
175
     1
176
     1
 42
1.0
176
     1
 92
        0
176
     1
 66
   257
176
     1
 43
1.0
176
     1
 76
     1
176
     1
 77
     6
176
     1
 78
     2
176
     1
 67
     7
176
     1
 79
     5
176
     1
170
     0
176
     1
171
     0
176
     1
290
     0
176
     1
 93
        1
176
     1
 44
0.0
176
     1
173
     0
176
     1
  0
VISUALSTYLE
  5
32
102
{ACAD_REACTORS
330
2A
102
}
330
2A
100
AcDbVisualStyle
  2
Basic
 70
     7
177
     2
291
     1
 71
     1
176
     1
 72
     0
176
     1
 73
     1
176
     1
 90
        0
176
     1
 40
-0.6
176
     1
 41
-30.0
176
     1
 62
     5
 63
     7
421
 16777215
176
     1
 74
     0
176
     1
 91
        4
176
     1
 64
     7
176
     1
 65
   257
176
     1
 75
     1
176
     1
175
     1
176
     1
 42
1.0
176
     1
 92
        8
176
     1
 66
     7
176
     1
 43
1.0
176
     1
 76
     1
176
     1
 77
     6
176
     1
 78
     2
176
     1
 67
     7
176
     1
 79
     5
176
     1
170
     0
176
     1
171
     0
176
     1
290
     0
176
     1
 93
        1
176
     1
 44
0.0
176
     1
173
     0
176
     1
  0
VISUALSTYLE
  5
36
102
{ACAD_REACTORS
330
2A
102
}
330
2A
100
AcDbVisualStyle
  2
Brighten
 70
    12
177
     2
291
     1
 71
     2
176
     1
 72
     2
176
     1
 73
     0
176
     1
 90
        0
176
     1
 40
-0.6
176
     1
 41
-30.0
176
     1
 62
     5
 63
     7
421
 16777215
176
     1
 74
     1
176
     1
 91
        4
176
     1
 64
     7
176
     1
 65
   257
176
     1
 75
     1
176
     1
175
     1
176
     1
 42
1.0
176
     1
 92
        8
176
     1
 66
     7
176
     1
 43
1.0
176
     1
 76
     1
176
     1
 77
     6
176
     1
 78
     2
176
     1
 67
     7
176
     1
 79
     5
176
     1
170
     0
176
     1
171
     0
176
     1
290
     0
176
     1
 93
        1
176
     1
 44
50.0
176
     1
173
     0
176
     1
  0
VISUALSTYLE
  5
3A
102
{ACAD_REACTORS
330
2A
102
}
330
2A
100
AcDbVisualStyle
  2
ColorChange
 70
    16
177
     2
291
     1
 71
     2
176
     1
 72
     2
176
     1
 73
     3
176
     1
 90
        0
176
     1
 40
-0.6
176
     1
 41
-30.0
176
     1
 62
     5
 63
     8
421
  8421504
176
     1
 74
     1
176
     1
 91
        4
176
     1
 64
     7
176
     1
 65
   257
176
     1
 75
     1
176
     1
175
     1
176
     1
 42
1.0
176
     1
 92
        8
176
     1
 66
     8
424
  8421504
176
     1
 43
1.0
176
     1
 76
     1
176
     1
 77
     6
176
     1
 78
     2
176
     1
 67
     7
176
     1
 79
     5
176
     1
170
     0
176
     1
171
     0
176
     1
290
     0
176
     1
 93
        1
176
     1
 44
0.0
176
     1
173
     0
176
     1
  0
VISUALSTYLE
  5
34
102
{ACAD_REACTORS
330
2A
102
}
330
2A
100
AcDbVisualStyle
  2
Conceptual
 70
     9
177
     2
291
     0
 71
     3
176
     1
 72
     2
176
     1
 73
     0
176
     1
 90
        0
176
     1
 40
-0.6
176
     1
 41
-30.0
176
     1
 62
     5
 63
     7
421
 16777215
176
     1
 74
     2
176
     1
 91
        2
176
     1
 64
     7
176
     1
 65
   257
176
     1
 75
     1
176
     1
175
     1
176
     1
 42
40.0
176
     1
 92
        8
176
     1
 66
     7
176
     1
 43
1.0
176
     1
 76
     1
176
     1
 77
     6
176
     1
 78
     2
176
     1
 67
     7
176
     1
 79
     3
176
     1
170
     0
176
     1
171
     0
176
     1
290
     0
176
     1
 93
        1
176
     1
 44
0.0
176
     1
173
     0
176
     1
  0
VISUALSTYLE
  5
35
102
{ACAD_REACTORS
330
2A
102
}
330
2A
100
AcDbVisualStyle
  2
Dim
 70
    11
177
     2
291
     1
 71
     2
176
     1
 72
     2
176
     1
 73
     0
176
     1
 90
        0
176
     1
 40
-0.6
176
     1
 41
-30.0
176
     1
 62
     5
 63
     7
421
 16777215
176
     1
 74
     1
176
     1
 91
        4
176
     1
 64
     7
176
     1
 65
   257
176
     1
 75
     1
176
     1
175
     1
176
     1
 42
1.0
176
     1
 92
        8
176
     1
 66
     7
176
     1
 43
1.0
176
     1
 76
     1
176
     1
 77
     6
176
     1
 78
     2
176
     1
 67
     7
176
     1
 79
     5
176
     1
170
     0
176
     1
171
     0
176
     1
290
     0
176
     1
 93
        1
176
     1
 44
-50.0
176
     1
173
     0
176
     1
  0
VISUALSTYLE
  5
39
102
{ACAD_REACTORS
330
2A
102
}
330
2A
100
AcDbVisualStyle
  2
Facepattern
 70
    15
177
     2
291
     1
 71
     2
176
     1
 72
     2
176
     1
 73
     0
176
     1
 90
        0
176
     1
 40
-0.6
176
     1
 41
-30.0
176
     1
 62
     5
 63
     7
421
 16777215
176
     1
 74
     1
176
     1
 91
        4
176
     1
 64
     7
176
     1
 65
   257
176
     1
 75
     1
176
     1
175
     1
176
     1
 42
1.0
176
     1
 92
        8
176
     1
 66
     7
176
     1
 43
1.0
176
     1
 76
     1
176
     1
 77
     6
176
     1
 78
     2
176
     1
 67
     7
176
     1
 79
     5
176
     1
170
     0
176
     1
171
     0
176
     1
290
     0
176
     1
 93
        1
176
     1
 44
0.0
176
     1
173
     0
176
     1
  0
VISUALSTYLE
  5
2B
102
{ACAD_REACTORS
330
2A
102
}
330
2A
100
AcDbVisualStyle
  2
Flat
 70
     0
177
     2
291
     1
 71
     2
176
     1
 72
     1
176
     1
 73
     1
176
     1
 90
        2
176
     1
 40
-0.6
176
     1
 41
30.0
176
     1
 62
     5
 63
     7
421
 16777215
176
     1
 74
     0
176
     1
 91
        4
176
     1
 64
     7
176
     1
 65
   257
176
     1
 75
     1
176
     1
175
     1
176
     1
 42
1.0
176
     1
 92
        8
176
     1
 66
     7
176
     1
 43
1.0
176
     1
 76
     1
176
     1
 77
     6
176
     1
 78
     2
176
     1
 67
     7
176
     1
 79
     5
176
     1
170
     0
176
     1
171
     0
176
     1
290
     0
176
     1
 93
       13
176
     1
 44
0.0
176
     1
173
     0
176
     1
  0
VISUALSTYLE
  5
2C
102
{ACAD_REACTORS
330
2A
102
}
330
2A
100
AcDbVisualStyle
  2
FlatWithEdges
 70
     1
177
     2
291
     1
 71
     2
176
     1
 72
     1
176
     1
 73
     1
176
     1
 90
        2
176
     1
 40
-0.6
176
     1
 41
30.0
176
     1
 62
     5
 63
     7
421
 16777215
176
     1
 74
     1
176
     1
 91
        4
176
     1
 64
     7
176
     1
 65
   257
176
     1
 75
     1
176
     1
175
     1
176
     1
 42
1.0
176
     1
 92
        0
176
     1
 66
   257
176
     1
 43
1.0
176
     1
 76
     1
176
     1
 77
     6
176
     1
 78
     2
176
     1
 67
     7
176
     1
 79
     5
176
     1
170
     0
176
     1
171
     0
176
     1
290
     0
176
     1
 93
       13
176
     1
 44
0.0
176
     1
173
     0
176
     1
  0
VISUALSTYLE
  5
2D
102
{ACAD_REACTORS
330
2A
102
}
330
2A
100
AcDbVisualStyle
  2
Gouraud
 70
     2
177
     2
291
     1
 71
     2
176
     1
 72
     2
176
     1
 73
     1
176
     1
 90
        2
176
     1
 40
-0.6
176
     1
 41
30.0
176
     1
 62
     5
 63
     7
421
 16777215
176
     1
 74
     0
176
     1
 91
        4
176
     1
 64
     7
176
     1
 65
   257
176
     1
 75
     1
176
     1
175
     1
176
     1
 42
1.0
176
     1
 92
        0
176
     1
 66
     7
176
     1
 43
1.0
176
     1
 76
     1
176
     1
 77
     6
176
     1
 78
     2
176
     1
 67
     7
176
     1
 79
     5
176
     1
170
     0
176
     1
171
     0
176
     1
290
     0
176
     1
 93
       13
176
     1
 44
0.0
176
     1
173
     0
176
     1
  0
VISUALSTYLE
  5
2E
102
{ACAD_REACTORS
330
2A
102
}
330
2A
100
AcDbVisualStyle
  2
GouraudWithEdges
 70
     3
177
     2
291
     1
 71
     2
176
     1
 72
     2
176
     1
 73
     1
176
     1
 90
        2
176
     1
 40
-0.6
176
     1
 41
30.0
176
     1
 62
     5
 63
     7
421
 16777215
176
     1
 74
     1
176
     1
 91
        4
176
     1
 64
     7
176
     1
 65
   257
176
     1
 75
     1
176
     1
175
     1
176
     1
 42
1.0
176
     1
 92
        0
176
     1
 66
   257
176
     1
 43
1.0
176
     1
 76
     1
176
     1
 77
     6
176
     1
 78
     2
176
     1
 67
     7
176
     1
 79
     5
176
     1
170
     0
176
     1
171
     0
176
     1
290
     0
176
     1
 93
       13
176
     1
 44
0.0
176
     1
173
     0
176
     1
  0
VISUALSTYLE
  5
38
102
{ACAD_REACTORS
330
2A
102
}
330
2A
100
AcDbVisualStyle
  2
Linepattern
 70
    14
177
     2
291
     1
 71
     2
176
     1
 72
     2
176
     1
 73
     0
176
     1
 90
        0
176
     1
 40
-0.6
176
     1
 41
-30.0
176
     1
 62
     5
 63
     7
421
 16777215
176
     1
 74
     1
176
     1
 91
        4
176
     1
 64
     7
176
     1
 65
   257
176
     1
 75
     7
176
     1
175
     7
176
     1
 42
1.0
176
     1
 92
        8
176
     1
 66
     7
176
     1
 43
1.0
176
     1
 76
     1
176
     1
 77
     6
176
     1
 78
     2
176
     1
 67
     7
176
     1
 79
     5
176
     1
170
     0
176
     1
171
     0
176
     1
290
     0
176
     1
 93
        1
176
     1
 44
0.0
176
     1
173
     0
176
     1
  0
VISUALSTYLE
  5
33
102
{ACAD_REACTORS
330
2A
102
}
330
2A
100
AcDbVisualStyle
  2
Realistic
 70
     8
177
     2
291
     0
 71
     2
176
     1
 72
     2
176
     1
 73
     0
176
     1
 90
        0
176
     1
 40
-0.6
176
     1
 41
-30.0
176
     1
 62
     5
 63
     7
421
 16777215
176
     1
 74
     1
176
     1
 91
        0
176
     1
 64
     7
176
     1
 65
   257
176
     1
 75
     1
176
     1
175
     1
176
     1
 42
1.0
176
     1
 92
        8
176
     1
 66
     8
424
  7895160
176
     1
 43
1.0
176
     1
 76
     1
176
     1
 77
     6
176
     1
 78
     2
176
     1
 67
     7
176
     1
 79
     5
176
     1
170
     0
176
     1
171
     0
176
     1
290
     0
176
     1
 93
       13
176
     1
 44
0.0
176
     1
173
     0
176
     1
  0
VISUALSTYLE
  5
37
102
{ACAD_REACTORS
330
2A
102
}
330
2A
100
AcDbVisualStyle
  2
Thicken
 70
    13
177
     2
291
     1
 71
     2
176
     1
 72
     2
176
     1
 73
     0
176
     1
 90
        0
176
     1
 40
-0.6
176
     1
 41
-30.0
176
     1
 62
     5
 63
     7
421
 16777215
176
     1
 74
     1
176
     1
 91
        4
176
     1
 64
     7
176
     1
 65
   257
176
     1
 75
     1
176
     1
175
     1
176
     1
 42
1.0
176
     1
 92
       12
176
     1
 66
     7
176
     1
 43
1.0
176
     1
 76
     1
176
     1
 77
     6
176
     1
 78
     2
176
     1
 67
     7
176
     1
 79
     5
176
     1
170
     0
176
     1
171
     0
176
     1
290
     0
176
     1
 93
        1
176
     1
 44
0.0
176
     1
173
     0
176
     1
  0
ENDSEC
  0
EOF
